<svg width="311" height="223" viewBox="0 0 311 223" fill="none" xmlns="http://www.w3.org/2000/svg">
<path d="M180.078 172.649C165.765 181.459 165.765 195.754 180.078 204.571C194.391 213.389 217.585 213.389 231.898 204.571C246.211 195.754 246.203 181.459 231.898 172.649C217.592 163.839 194.383 163.831 180.078 172.649Z" fill="#EBEBEB"/>
<path d="M29.3813 46.276L67.7235 33.5535L38.2262 55.3569L29.3813 46.276Z" fill="#283618"/>
<path d="M67.7234 33.5535L26.4258 40.8213L17.5809 31.7327L67.7234 33.5535Z" fill="#283618"/>
<path d="M26.4258 40.8213V51.723L29.3813 46.276L67.7235 33.5535L26.4258 40.8213Z" fill="#455A64"/>
<path d="M26.4258 51.723L32.3296 49.3056L29.3813 46.276L26.4258 51.723Z" fill="#283618"/>
<path d="M29.3813 46.276L32.3296 49.3056L31.3856 49.6852L29.3813 46.276Z" fill="#455A64"/>
<path d="M20.0718 50.0804C19.9497 50.0828 19.8304 50.0414 19.733 49.9628C19.6356 49.8842 19.5658 49.7729 19.5348 49.6469C19.5038 49.5208 19.5134 49.3874 19.5621 49.2679C19.6107 49.1483 19.6956 49.0497 19.8031 48.9879C20.4567 48.6005 21.1175 48.2131 21.771 47.9109C21.8358 47.8735 21.9071 47.8505 21.9805 47.8433C22.0538 47.8362 22.1278 47.8449 22.1979 47.8692C22.268 47.8934 22.3328 47.9325 22.3883 47.9842C22.4438 48.0359 22.4889 48.0991 22.5209 48.1699C22.5529 48.2408 22.571 48.3178 22.5743 48.3963C22.5775 48.4749 22.5658 48.5533 22.5398 48.6269C22.5139 48.7004 22.4742 48.7676 22.4232 48.8244C22.3721 48.8811 22.3109 48.9262 22.243 48.9569C21.6113 49.2823 20.965 49.631 20.3332 50.0107C20.2524 50.0555 20.1628 50.0793 20.0718 50.0804Z" fill="#E0E0E0"/>
<path d="M13.3691 112.655C13.2578 112.656 13.1489 112.621 13.0569 112.554C11.8758 111.666 10.757 110.687 9.70918 109.625C9.64278 109.579 9.58657 109.518 9.54447 109.447C9.50237 109.375 9.47539 109.295 9.46541 109.211C9.45544 109.127 9.4627 109.042 9.4867 108.962C9.5107 108.881 9.55086 108.807 9.60438 108.745C9.6579 108.683 9.72349 108.634 9.79659 108.601C9.86969 108.569 9.94854 108.554 10.0276 108.557C10.1067 108.561 10.1842 108.582 10.2546 108.621C10.325 108.659 10.3867 108.714 10.4354 108.781C11.446 109.804 12.5261 110.747 13.6668 111.601C13.7609 111.673 13.831 111.775 13.8672 111.892C13.9034 112.009 13.9038 112.135 13.8682 112.252C13.8326 112.37 13.763 112.472 13.6693 112.544C13.5757 112.617 13.4629 112.655 13.3473 112.655H13.3691ZM7.67589 107.014C7.59548 107.015 7.51591 106.997 7.44301 106.961C7.37012 106.924 7.30577 106.871 7.2547 106.805C6.33967 105.613 5.50721 104.352 4.76392 103.031C4.68881 102.899 4.66612 102.74 4.70084 102.59C4.73557 102.439 4.82487 102.31 4.94909 102.23C5.07332 102.149 5.22229 102.125 5.36324 102.162C5.50419 102.199 5.62557 102.295 5.70069 102.427C6.41668 103.701 7.21753 104.918 8.09707 106.069C8.18778 106.187 8.23103 106.339 8.21744 106.491C8.20384 106.644 8.1345 106.784 8.02445 106.882C7.92718 106.97 7.80323 107.017 7.67589 107.014ZM3.58751 99.9632C3.48202 99.9643 3.37851 99.9326 3.28956 99.8721C3.20061 99.8116 3.13005 99.7248 3.08645 99.6223C2.49304 98.2196 1.98369 96.7781 1.56148 95.3065C1.53049 95.1634 1.55148 95.013 1.62023 94.8857C1.68897 94.7584 1.80036 94.6636 1.93198 94.6204C2.06359 94.5772 2.20566 94.5888 2.32959 94.6528C2.45352 94.7169 2.55011 94.8286 2.59991 94.9656C3.00135 96.3889 3.48643 97.7837 4.05226 99.1419C4.08269 99.2115 4.09988 99.2869 4.10283 99.3637C4.10578 99.4404 4.09443 99.5171 4.06945 99.5891C4.04446 99.6612 4.00633 99.7272 3.95726 99.7835C3.90819 99.8397 3.84916 99.885 3.78358 99.9167C3.72177 99.946 3.65512 99.9618 3.58751 99.9632ZM1.22744 92.0523C1.10148 92.0511 0.979819 92.0033 0.883163 91.9171C0.786507 91.831 0.720835 91.7117 0.697328 91.5797C0.420123 90.0742 0.223734 88.5531 0.109124 87.0237C0.0975683 86.8696 0.143866 86.7169 0.237833 86.5992C0.331801 86.4815 0.465739 86.4085 0.610185 86.3961C0.754631 86.3838 0.897751 86.4332 1.00806 86.5335C1.11837 86.6337 1.18683 86.7766 1.19839 86.9308C1.30521 88.4161 1.49435 89.8935 1.76481 91.355C1.77956 91.4298 1.78012 91.5071 1.76646 91.5822C1.7528 91.6573 1.7252 91.7287 1.68527 91.7922C1.64535 91.8558 1.59391 91.9102 1.53399 91.9522C1.47406 91.9942 1.40687 92.0229 1.33636 92.0368L1.22744 92.0523ZM0.537568 83.7772C0.465761 83.7773 0.394676 83.762 0.328514 83.7322C0.262352 83.7024 0.202454 83.6588 0.15236 83.6039C0.102266 83.549 0.0629916 83.4839 0.0368564 83.4126C0.0107213 83.3412 -0.00174444 83.265 0.00019631 83.1884C0.0171809 81.6548 0.114156 80.1235 0.290668 78.6015C0.291499 78.5198 0.308469 78.4392 0.340467 78.3649C0.372465 78.2907 0.418771 78.2245 0.476368 78.1707C0.533964 78.1168 0.601554 78.0766 0.674727 78.0525C0.747899 78.0284 0.825008 78.021 0.901022 78.0309C0.977037 78.0408 1.05025 78.0676 1.11588 78.1097C1.18151 78.1518 1.23808 78.2082 1.2819 78.2752C1.32572 78.3422 1.35581 78.4183 1.3702 78.4986C1.38459 78.5788 1.38296 78.6614 1.36541 78.7409C1.19751 80.2221 1.10539 81.712 1.08946 83.2039C1.08851 83.2802 1.07349 83.3556 1.04524 83.4257C1.01699 83.4958 0.976073 83.5593 0.924824 83.6125C0.873574 83.6658 0.812997 83.7077 0.746551 83.736C0.680105 83.7643 0.609092 83.7783 0.537568 83.7772ZM1.42351 75.5254C1.38266 75.533 1.3409 75.533 1.30005 75.5254C1.15972 75.4921 1.03745 75.4008 0.959913 75.2716C0.882372 75.1425 0.855851 74.9858 0.886133 74.8358C1.20432 73.335 1.61181 71.8572 2.10611 70.4116C2.13017 70.3362 2.16852 70.2668 2.21877 70.2079C2.26902 70.1489 2.33009 70.1016 2.3982 70.0689C2.4663 70.0362 2.53998 70.0188 2.61466 70.0178C2.68934 70.0168 2.76341 70.0322 2.83229 70.063C2.90236 70.0896 2.96666 70.131 3.02133 70.1848C3.07601 70.2386 3.11992 70.3037 3.15045 70.3761C3.18097 70.4484 3.19747 70.5266 3.19895 70.606C3.20043 70.6853 3.18686 70.7642 3.15907 70.8378C2.68259 72.2355 2.28966 73.664 1.98266 75.1148C1.94679 75.2407 1.87195 75.3498 1.77038 75.4244C1.6688 75.499 1.54651 75.5346 1.42351 75.5254ZM4.00869 67.6998C3.92496 67.7033 3.84197 67.6818 3.76906 67.6378C3.70408 67.6055 3.64581 67.5596 3.5977 67.5029C3.54959 67.4461 3.5126 67.3797 3.48892 67.3075C3.46523 67.2353 3.45533 67.1588 3.45979 67.0824C3.46425 67.0061 3.48299 66.9315 3.51489 66.863C4.14872 65.4822 4.86172 64.1443 5.64985 62.8572C5.72921 62.7371 5.84823 62.6536 5.98295 62.6234C6.11768 62.5933 6.25813 62.6186 6.37603 62.6944C6.49114 62.7767 6.57201 62.9032 6.60178 63.0476C6.63155 63.192 6.6079 63.343 6.53579 63.4693C5.76974 64.7126 5.07848 66.0065 4.46619 67.3434C4.4286 67.4423 4.36586 67.5281 4.28503 67.5911C4.2042 67.6541 4.10849 67.6917 4.00869 67.6998ZM8.18421 60.7264C8.06275 60.7277 7.94464 60.6839 7.85017 60.6024C7.79355 60.5549 7.74634 60.4958 7.71128 60.4287C7.67621 60.3615 7.65398 60.2876 7.64587 60.2112C7.63777 60.1348 7.64395 60.0575 7.66406 59.9836C7.68417 59.9098 7.71781 59.841 7.76303 59.7811C8.67049 58.585 9.64026 57.4442 10.6677 56.3642C10.7699 56.2554 10.9083 56.1942 11.0526 56.1942C11.1969 56.1942 11.3354 56.2554 11.4375 56.3642C11.5395 56.4731 11.5968 56.6208 11.5968 56.7748C11.5968 56.9288 11.5395 57.0765 11.4375 57.1855C10.4478 58.2389 9.51214 59.3485 8.63444 60.5095C8.57819 60.5758 8.50818 60.6271 8.43 60.6594C8.35182 60.6917 8.26765 60.704 8.18421 60.6954V60.7264ZM13.6451 54.7758C13.5659 54.7756 13.4877 54.7568 13.4162 54.7206C13.3446 54.6844 13.2814 54.6319 13.2311 54.5666C13.1391 54.4478 13.0945 54.2953 13.1067 54.1417C13.1189 53.9882 13.187 53.8458 13.2965 53.7453C14.402 52.7644 15.5532 51.8438 16.7458 50.9869C16.8629 50.9103 17.0028 50.8837 17.1374 50.9125C17.2721 50.9412 17.3916 51.0232 17.472 51.1419C17.5531 51.2706 17.5833 51.4282 17.5561 51.5805C17.5289 51.7328 17.4465 51.8676 17.3268 51.9555C16.1632 52.7891 15.041 53.6865 13.9646 54.6441C13.8734 54.7221 13.7618 54.7681 13.6451 54.7758Z" fill="#E0E0E0"/>
<path d="M18.3652 115.684C18.2873 115.685 18.2102 115.666 18.1401 115.63C17.4647 115.305 16.7967 114.956 16.1576 114.584C16.0951 114.549 16.0397 114.501 15.9946 114.443C15.9495 114.385 15.9155 114.318 15.8946 114.246C15.8737 114.174 15.8663 114.099 15.8728 114.024C15.8793 113.949 15.8996 113.876 15.9325 113.809C16.0003 113.676 16.1142 113.576 16.2498 113.532C16.3855 113.487 16.5322 113.5 16.6587 113.569C17.2832 113.925 17.9295 114.266 18.5831 114.584C18.6951 114.64 18.7861 114.734 18.8411 114.852C18.8961 114.971 18.9118 115.105 18.8856 115.234C18.8594 115.363 18.7929 115.478 18.697 115.562C18.6011 115.645 18.4815 115.691 18.3579 115.692L18.3652 115.684Z" fill="#E0E0E0"/>
<path d="M266.754 87.5661L297.471 66.584L311 71.2175L266.754 87.5661Z" fill="#283618"/>
<path d="M266.754 87.5661L293.303 63.9496L287.399 56.6819L266.754 87.5661Z" fill="#283618"/>
<path d="M293.303 63.9496V69.4276L266.754 87.5661L293.303 63.9496Z" fill="#455A64"/>
<path d="M299.294 61.6639C299.162 61.6644 299.035 61.6119 298.938 61.5167C298.831 61.414 298.765 61.2706 298.756 61.1171C298.746 60.9636 298.794 60.8123 298.887 60.6954C299.833 59.5699 300.672 58.3475 301.393 57.046C301.466 56.9124 301.586 56.8154 301.726 56.7761C301.866 56.7369 302.015 56.7587 302.141 56.8368C302.266 56.9149 302.357 57.0428 302.394 57.1925C302.43 57.3422 302.41 57.5013 302.337 57.6349C301.576 58.9992 300.696 60.2834 299.708 61.4702C299.656 61.5322 299.592 61.5816 299.521 61.6151C299.449 61.6485 299.372 61.6651 299.294 61.6639ZM303.448 54.4426C303.383 54.4536 303.317 54.4536 303.252 54.4426C303.183 54.4146 303.12 54.372 303.067 54.3173C303.014 54.2627 302.972 54.1972 302.944 54.1248C302.915 54.0524 302.901 53.9745 302.901 53.896C302.902 53.8175 302.917 53.7398 302.947 53.6678C303.46 52.2565 303.844 50.7957 304.094 49.3056C304.12 49.1535 304.202 49.0187 304.321 48.9308C304.44 48.8429 304.587 48.8091 304.729 48.8368C304.872 48.8646 304.998 48.9516 305.081 49.0787C305.163 49.2059 305.195 49.3627 305.169 49.5148C304.901 51.0762 304.495 52.6068 303.956 54.0862C303.915 54.1935 303.844 54.2849 303.754 54.3485C303.663 54.4122 303.556 54.445 303.448 54.4426ZM305.002 46.1288C304.931 46.1278 304.86 46.1117 304.795 46.0815C304.73 46.0513 304.671 46.0075 304.621 45.9527C304.572 45.8979 304.533 45.8332 304.508 45.7623C304.482 45.6915 304.47 45.6159 304.472 45.54C304.472 45.3385 304.472 45.1371 304.472 44.9356C304.469 43.6202 304.371 42.3069 304.181 41.0073C304.16 40.8544 304.196 40.6988 304.282 40.5742C304.368 40.4495 304.496 40.3657 304.639 40.3409C304.782 40.3206 304.927 40.3601 305.043 40.451C305.159 40.542 305.238 40.6775 305.263 40.8291C305.459 42.1879 305.559 43.5607 305.561 44.9356C305.561 45.1448 305.561 45.354 305.561 45.5632C305.555 45.7167 305.494 45.8617 305.389 45.9674C305.285 46.073 305.146 46.131 305.002 46.1288ZM303.905 37.7298C303.788 37.7294 303.675 37.6883 303.582 37.6128C303.489 37.5373 303.421 37.4315 303.39 37.3114C302.973 35.8576 302.451 34.4406 301.828 33.0731C301.796 33.0046 301.778 32.93 301.773 32.8537C301.769 32.7773 301.779 32.7008 301.802 32.6286C301.826 32.5564 301.863 32.49 301.911 32.4332C301.959 32.3765 302.018 32.3306 302.083 32.2983C302.213 32.2317 302.362 32.2229 302.498 32.2737C302.634 32.3245 302.746 32.4309 302.809 32.5695C303.458 33.9905 304 35.4648 304.428 36.9782C304.449 37.051 304.457 37.1275 304.45 37.2033C304.443 37.2791 304.422 37.3527 304.388 37.4198C304.354 37.4868 304.308 37.5461 304.253 37.594C304.197 37.6419 304.134 37.6775 304.065 37.6988C304.014 37.7203 303.96 37.7308 303.905 37.7298ZM300.536 30.0359C300.444 30.0368 300.354 30.0122 300.273 29.9647C300.193 29.9172 300.126 29.8482 300.078 29.7647C299.3 28.4896 298.443 27.2705 297.515 26.1153C297.468 26.0574 297.432 25.9901 297.41 25.9174C297.387 25.8448 297.379 25.7681 297.384 25.6917C297.389 25.6154 297.409 25.541 297.441 25.4727C297.474 25.4045 297.518 25.3437 297.573 25.294C297.627 25.2442 297.689 25.2062 297.757 25.1824C297.824 25.1585 297.895 25.1492 297.966 25.155C298.037 25.1607 298.106 25.1815 298.17 25.216C298.233 25.2505 298.289 25.298 298.335 25.3559C299.299 26.5517 300.187 27.8149 300.993 29.1371C301.06 29.2647 301.081 29.4141 301.052 29.5569C301.022 29.6997 300.945 29.8261 300.834 29.9119C300.747 29.9801 300.643 30.0204 300.536 30.0281V30.0359ZM295.453 23.5196C295.314 23.5192 295.181 23.4607 295.082 23.3569C294.036 22.3127 292.938 21.3298 291.793 20.4126C291.735 20.3668 291.687 20.3095 291.651 20.2438C291.614 20.1781 291.59 20.1054 291.58 20.0299C291.57 19.9544 291.574 19.8774 291.592 19.8035C291.61 19.7296 291.641 19.6601 291.684 19.599C291.727 19.538 291.78 19.4866 291.842 19.4477C291.903 19.4088 291.972 19.3832 292.042 19.3724C292.113 19.3617 292.185 19.3658 292.255 19.3848C292.324 19.4037 292.389 19.437 292.446 19.4828C293.627 20.4242 294.756 21.4356 295.83 22.5124C295.911 22.5922 295.967 22.6963 295.991 22.8109C296.015 22.9256 296.007 23.0453 295.966 23.1544C295.925 23.2635 295.854 23.3568 295.762 23.422C295.671 23.4872 295.563 23.5212 295.453 23.5196ZM289.084 18.3593C288.981 18.3583 288.88 18.3261 288.794 18.2664C288.3 17.9409 287.784 17.6155 287.261 17.2978C286.535 16.8639 285.809 16.43 285.039 16.0194C284.969 15.9893 284.905 15.944 284.852 15.8862C284.799 15.8284 284.758 15.7595 284.732 15.6839C284.705 15.6082 284.694 15.5275 284.698 15.4468C284.702 15.3662 284.722 15.2874 284.757 15.2155C284.791 15.1436 284.84 15.0801 284.898 15.0291C284.957 14.9782 285.025 14.9408 285.098 14.9195C285.171 14.8982 285.248 14.8933 285.322 14.9053C285.397 14.9172 285.469 14.9457 285.533 14.9889C286.295 15.4073 287.058 15.8412 287.799 16.2906C288.336 16.6083 288.859 16.9414 289.367 17.2823C289.484 17.3623 289.569 17.4871 289.602 17.6312C289.636 17.7753 289.617 17.9277 289.549 18.0572C289.502 18.1456 289.434 18.2198 289.353 18.2727C289.272 18.3255 289.179 18.3554 289.084 18.3593ZM223.982 17.9642C223.886 17.9631 223.792 17.9353 223.71 17.8837C223.627 17.8321 223.558 17.7583 223.51 17.6698C223.441 17.5389 223.423 17.3845 223.46 17.2396C223.497 17.0948 223.585 16.971 223.706 16.8949C224.97 16.1201 226.27 15.3453 227.584 14.6944C227.713 14.6273 227.862 14.6173 227.998 14.6666C228.134 14.716 228.246 14.8207 228.31 14.9579C228.371 15.0969 228.378 15.2557 228.331 15.4003C228.283 15.545 228.185 15.6643 228.056 15.7327C226.763 16.4068 225.485 17.1274 224.244 17.8945C224.162 17.9366 224.072 17.9553 223.982 17.9487V17.9642ZM282.004 14.4233C281.928 14.4238 281.853 14.4052 281.786 14.369C280.479 13.7569 279.128 13.1836 277.777 12.6722C277.641 12.6198 277.529 12.5116 277.467 12.3713C277.405 12.2311 277.398 12.0704 277.447 11.9245C277.496 11.7786 277.598 11.6595 277.729 11.5933C277.86 11.5272 278.011 11.5195 278.148 11.5719C279.52 12.0988 280.893 12.6799 282.229 13.3075C282.345 13.3604 282.441 13.4549 282.499 13.5748C282.557 13.6947 282.575 13.8325 282.548 13.9646C282.522 14.0966 282.453 14.2147 282.353 14.2984C282.254 14.3821 282.13 14.4262 282.004 14.4233ZM231.135 14.1831C231.028 14.1838 230.923 14.1503 230.833 14.0868C230.744 14.0233 230.675 13.9327 230.634 13.8267C230.604 13.7556 230.588 13.6789 230.587 13.6011C230.585 13.5232 230.598 13.4459 230.626 13.3736C230.653 13.3014 230.693 13.2356 230.744 13.1804C230.796 13.1251 230.857 13.0814 230.924 13.0518C232.268 12.4475 233.648 11.8896 235.027 11.386C235.097 11.3553 235.171 11.3403 235.246 11.3418C235.321 11.3434 235.395 11.3614 235.463 11.3949C235.532 11.4284 235.593 11.4765 235.643 11.5363C235.692 11.5961 235.73 11.6663 235.754 11.7424C235.78 11.8171 235.792 11.8967 235.789 11.9764C235.786 12.0562 235.768 12.1346 235.736 12.2068C235.705 12.2791 235.66 12.3438 235.604 12.3971C235.548 12.4504 235.483 12.4912 235.412 12.5172C234.054 13.0131 232.689 13.5632 231.375 14.1521C231.297 14.1752 231.215 14.1805 231.135 14.1676V14.1831ZM274.51 11.5022C274.459 11.5097 274.408 11.5097 274.357 11.5022C272.985 11.0761 271.576 10.7274 270.174 10.3632C270.104 10.3469 270.038 10.3161 269.979 10.2724C269.92 10.2288 269.87 10.1731 269.831 10.1088C269.792 10.0444 269.766 9.97245 269.753 9.89713C269.74 9.8218 269.742 9.74454 269.757 9.66976C269.772 9.59497 269.801 9.52412 269.842 9.46126C269.883 9.39839 269.935 9.34475 269.995 9.30338C270.056 9.262 270.123 9.23372 270.194 9.22014C270.264 9.20656 270.337 9.20795 270.407 9.22423C271.859 9.55741 273.268 9.95256 274.662 10.3865C274.788 10.4256 274.896 10.5119 274.967 10.6295C275.038 10.7471 275.067 10.888 275.049 11.0265C275.03 11.165 274.965 11.2917 274.866 11.3833C274.767 11.475 274.641 11.5254 274.51 11.5254V11.5022ZM238.673 11.386C238.554 11.3855 238.439 11.3436 238.344 11.2667C238.25 11.1897 238.182 11.082 238.15 10.9598C238.13 10.8871 238.124 10.8108 238.132 10.7355C238.139 10.6602 238.161 10.5873 238.196 10.521C238.23 10.4547 238.277 10.3963 238.332 10.3493C238.388 10.3023 238.452 10.2675 238.52 10.247C239.922 9.82859 241.36 9.47217 242.79 9.13125C242.863 9.10657 242.939 9.09836 243.015 9.10717C243.091 9.11598 243.164 9.14161 243.229 9.18239C243.295 9.22318 243.352 9.27822 243.397 9.34398C243.442 9.40974 243.473 9.48474 243.489 9.56416C243.504 9.64358 243.504 9.72566 243.489 9.80509C243.473 9.88453 243.442 9.95956 243.397 10.0254C243.353 10.0911 243.296 10.1462 243.23 10.1871C243.164 10.2279 243.091 10.2536 243.015 10.2625C241.607 10.5802 240.198 10.9521 238.818 11.3627L238.673 11.386ZM266.725 9.63489H266.616C265.2 9.39469 263.755 9.20099 262.332 9.06152C262.257 9.06065 262.183 9.04325 262.114 9.01042C262.046 8.97759 261.984 8.93003 261.934 8.87074C261.884 8.81144 261.845 8.74168 261.821 8.66583C261.797 8.58998 261.788 8.50966 261.795 8.42993C261.802 8.3502 261.823 8.27276 261.859 8.20248C261.895 8.13219 261.944 8.07058 262.003 8.02148C262.063 7.97239 262.131 7.93689 262.204 7.91719C262.276 7.8975 262.352 7.89405 262.426 7.90704C263.878 8.04651 265.331 8.24022 266.783 8.48816C266.925 8.51476 267.051 8.59928 267.135 8.72373C267.219 8.84819 267.254 9.00274 267.233 9.1545C267.208 9.27989 267.144 9.39273 267.052 9.47543C266.96 9.55812 266.845 9.60602 266.725 9.61164V9.63489ZM246.472 9.58065C246.343 9.58059 246.218 9.53145 246.119 9.44202C246.021 9.35258 245.955 9.2287 245.935 9.09252C245.914 8.93961 245.95 8.78406 246.035 8.6594C246.121 8.53474 246.249 8.45098 246.392 8.42617C247.844 8.19373 249.297 8.00002 250.749 7.8683C250.821 7.86169 250.893 7.87017 250.961 7.89327C251.03 7.91636 251.093 7.95361 251.148 8.00289C251.203 8.05218 251.248 8.11253 251.281 8.18051C251.314 8.24848 251.335 8.32274 251.341 8.39905C251.347 8.47536 251.339 8.55223 251.318 8.62527C251.296 8.6983 251.261 8.76607 251.215 8.82471C251.169 8.88335 251.112 8.93171 251.048 8.96702C250.985 9.00234 250.915 9.02392 250.843 9.03053C249.391 9.16225 247.975 9.34046 246.559 9.58065H246.472ZM258.781 8.80583C257.328 8.75159 255.876 8.74385 254.46 8.80583C254.388 8.81002 254.317 8.79874 254.25 8.77269C254.183 8.74663 254.121 8.70633 254.069 8.65421C254.016 8.60209 253.975 8.53923 253.946 8.46941C253.917 8.3996 253.902 8.32427 253.901 8.24796C253.898 8.17138 253.909 8.09495 253.935 8.0232C253.96 7.95144 253.998 7.88581 254.048 7.83019C254.097 7.77457 254.156 7.73009 254.222 7.69937C254.288 7.66865 254.359 7.65233 254.431 7.65135C255.883 7.59712 257.336 7.60486 258.788 7.65135C258.859 7.65336 258.93 7.67039 258.995 7.70146C259.061 7.73254 259.12 7.77705 259.169 7.83245C259.218 7.88786 259.257 7.95307 259.282 8.02437C259.308 8.09566 259.32 8.17164 259.318 8.24796C259.307 8.39331 259.246 8.52923 259.147 8.62942C259.048 8.72961 258.917 8.78695 258.781 8.79034V8.80583Z" fill="#E0E0E0"/>
<path d="M256.043 98.894V97.6542H255.76C255.329 96.8145 254.674 96.1298 253.879 95.6862C252.256 94.8075 250.463 94.3496 248.643 94.3496C246.824 94.3496 245.03 94.8075 243.407 95.6862C242.612 96.1298 241.958 96.8145 241.527 97.6542H241.243V98.8552C241.243 100.041 241.97 101.234 243.422 102.14C245.046 103.015 246.839 103.47 248.658 103.47C250.476 103.47 252.27 103.015 253.893 102.14C255.331 101.265 256.05 100.072 256.043 98.894Z" fill="#37474F"/>
<path d="M248.643 102.218C252.73 102.218 256.043 100.175 256.043 97.6542C256.043 95.1338 252.73 93.0905 248.643 93.0905C244.556 93.0905 241.243 95.1338 241.243 97.6542C241.243 100.175 244.556 102.218 248.643 102.218Z" fill="#455A64"/>
<path d="M246.741 59.6572V97.1196C246.756 97.2974 246.815 97.4676 246.912 97.6132C247.009 97.7588 247.14 97.8745 247.293 97.9487C247.71 98.1741 248.172 98.2915 248.64 98.2915C249.108 98.2915 249.569 98.1741 249.987 97.9487C250.141 97.8762 250.274 97.7612 250.372 97.6154C250.47 97.4696 250.53 97.2984 250.546 97.1196V59.6572H246.741Z" fill="#37474F"/>
<path d="M257.176 31.6165C255.324 30.4775 253.639 30.3845 252.376 31.1361L228.855 45.6407L240.655 70.892L264.256 56.3254V45.2765C264.256 40.1395 261.083 34.0262 257.176 31.6165Z" fill="#455A64"/>
<path d="M240.655 59.8354V70.892L226.502 62.1676V51.1187C226.502 45.9816 229.668 43.7734 233.575 46.1831C236.08 47.7327 238.281 50.7855 239.537 54.1327C240.24 55.9425 240.619 57.8767 240.655 59.8354Z" fill="#37474F"/>
<path d="M240.655 59.8354V70.892L226.502 62.1676L239.537 54.1327C240.24 55.9425 240.619 57.8767 240.655 59.8354Z" fill="#263238"/>
<path d="M238.295 63.6242C236.995 59.6107 232.769 54.4039 228.855 52.002C224.941 49.6 222.835 50.894 224.135 54.9075L226.495 62.1753L240.655 70.8998C240.655 70.8998 239.602 67.6378 238.295 63.6242Z" fill="#455A64"/>
<path d="M248.033 60.2538L247.242 59.7656C247.072 59.6823 246.884 59.6484 246.698 59.6675C246.512 59.6865 246.334 59.7578 246.181 59.8741C245.744 60.1795 245.38 60.5904 245.119 61.0736C244.858 61.5568 244.707 62.0987 244.678 62.6557C244.659 62.8552 244.689 63.0567 244.767 63.2393C244.845 63.4218 244.967 63.5788 245.121 63.6939L245.847 64.1433L245.985 63.9031C246.136 63.8684 246.281 63.8082 246.414 63.7249C246.851 63.4212 247.215 63.0118 247.476 62.5298C247.738 62.0479 247.889 61.507 247.917 60.9511C247.916 60.8125 247.899 60.6745 247.866 60.5404L248.033 60.2538Z" fill="#263238"/>
<path d="M246.937 60.3467C246.499 60.6504 246.135 61.0599 245.874 61.5419C245.613 62.0238 245.462 62.5647 245.433 63.1206C245.433 64.1433 246.109 64.554 246.937 64.0426C247.374 63.7394 247.739 63.33 248 62.8479C248.261 62.3659 248.412 61.8248 248.44 61.2688C248.462 60.246 247.735 59.8353 246.937 60.3467Z" fill="#37474F"/>
<path d="M246.937 62.6325C246.879 62.6325 246.823 62.6204 246.77 62.5971C246.717 62.5737 246.669 62.5395 246.629 62.4963C246.588 62.4531 246.556 62.4019 246.534 62.3455C246.512 62.2891 246.501 62.2286 246.501 62.1676V46.1831C246.501 46.0598 246.547 45.9415 246.629 45.8543C246.71 45.7671 246.821 45.7182 246.937 45.7182C247.052 45.7182 247.163 45.7671 247.245 45.8543C247.326 45.9415 247.372 46.0598 247.372 46.1831V62.1676C247.372 62.2909 247.326 62.4091 247.245 62.4963C247.163 62.5835 247.052 62.6325 246.937 62.6325Z" fill="#263238"/>
<path d="M247.329 46.6015V50.77L251.519 46.1831L247.329 46.6015Z" fill="#37474F"/>
<path d="M27.0357 184.876C26.6726 185.085 20.0063 187.099 17.5373 183.62C15.0683 180.141 19.1712 174.718 16.8547 172.719C14.5382 170.72 8.04615 172.719 6.48487 168.519C4.92359 164.32 9.54934 162.507 6.94963 158.268C5.30847 155.595 0.71903 154.123 0.929621 151.636C1.23462 148.002 7.50878 146.987 12.9842 150.915C18.4595 154.844 21.0157 151.62 22.7512 151.357C24.4868 151.093 28.2339 151.675 28.1177 158.183C28.0015 164.691 27.0357 184.876 27.0357 184.876Z" fill="#283618"/>
<path d="M27.4787 175.647C27.392 175.647 27.3083 175.614 27.2419 175.555C27.1756 175.495 27.1309 175.413 27.1156 175.322C25.2057 162.925 11.7497 152.907 4.74934 150.753C4.70303 150.739 4.65972 150.716 4.62201 150.684C4.58431 150.653 4.55298 150.613 4.52992 150.569C4.50686 150.524 4.49253 150.474 4.48781 150.423C4.48309 150.372 4.48807 150.321 4.50244 150.272C4.52941 150.174 4.59199 150.09 4.67643 150.041C4.76086 149.992 4.86023 149.98 4.95267 150.009C12.1055 152.217 25.8738 162.514 27.8345 175.198C27.8492 175.299 27.8262 175.401 27.7705 175.484C27.7148 175.567 27.6308 175.623 27.5368 175.64L27.4787 175.647Z" fill="white"/>
<path d="M11.6044 165.273C11.5246 165.273 11.4467 165.246 11.3828 165.195C11.319 165.144 11.2727 165.072 11.2512 164.99C11.2297 164.907 11.2342 164.82 11.2639 164.741C11.2936 164.662 11.3469 164.596 11.4156 164.552C11.6335 164.413 16.8184 161.182 21.9161 162.692C22.0124 162.719 22.0948 162.786 22.1452 162.877C22.1956 162.969 22.2099 163.078 22.1848 163.181C22.1598 163.283 22.0975 163.371 22.0117 163.425C21.9259 163.479 21.8236 163.494 21.7273 163.467C16.92 162.042 11.8368 165.211 11.786 165.242C11.7295 165.27 11.6665 165.281 11.6044 165.273Z" fill="white"/>
<path d="M216.873 119.411C219.734 119.83 224.607 118.063 224.955 112.98C225.304 107.897 227.272 106.518 230.881 105.689C234.49 104.86 235.55 103.52 235.964 101.102C236.378 98.6848 233.633 95.7947 234.403 92.153C235.173 88.5114 237.743 88.5191 240.27 84.4049C241.89 81.755 238.571 77.7104 233.045 79.446C227.519 81.1816 227.962 84.986 222.435 85.4741C216.909 85.9622 213.445 89.5419 213.336 93.9971C213.228 98.4523 216.873 119.411 216.873 119.411Z" fill="#283618"/>
<path opacity="0.2" d="M216.873 119.411C219.734 119.83 224.607 118.063 224.955 112.98C225.304 107.897 227.272 106.518 230.881 105.689C234.49 104.86 235.55 103.52 235.964 101.102C236.378 98.6848 233.633 95.7947 234.403 92.153C235.173 88.5114 237.743 88.5191 240.27 84.4049C241.89 81.755 238.571 77.7104 233.045 79.446C227.519 81.1816 227.962 84.986 222.435 85.4741C216.909 85.9622 213.445 89.5419 213.336 93.9971C213.228 98.4523 216.873 119.411 216.873 119.411Z" fill="black"/>
<path d="M215.827 109.664H215.784C215.737 109.654 215.692 109.634 215.653 109.605C215.613 109.577 215.58 109.54 215.553 109.498C215.527 109.456 215.509 109.408 215.5 109.358C215.491 109.308 215.491 109.257 215.5 109.207C218.173 95.1128 232.747 82.2121 236.298 80.8949C236.394 80.861 236.499 80.8693 236.59 80.918C236.681 80.9667 236.749 81.0518 236.781 81.1545C236.813 81.2572 236.805 81.3693 236.759 81.4659C236.714 81.5625 236.634 81.6359 236.538 81.6698C233.067 82.956 218.826 95.6165 216.205 109.4C216.178 109.483 216.126 109.553 216.058 109.601C215.99 109.648 215.909 109.671 215.827 109.664Z" fill="white"/>
<path d="M23.9857 104.666C24.0212 103.968 24.2107 103.288 24.5387 102.682C24.8668 102.076 25.3242 101.561 25.8738 101.18L122.39 41.7201C122.975 41.4067 123.62 41.2434 124.274 41.2434C124.929 41.2434 125.574 41.4067 126.159 41.7201L128.287 43.0373C128.837 43.4177 129.296 43.9321 129.624 44.5382C129.952 45.1443 130.141 45.8249 130.175 46.524V125.462C130.137 126.161 129.947 126.84 129.619 127.445C129.291 128.051 128.835 128.566 128.287 128.949L31.7703 188.401C31.1853 188.718 30.5384 188.883 29.8823 188.883C29.2261 188.883 28.5792 188.718 27.9942 188.401L25.8738 187.092C25.325 186.709 24.8682 186.194 24.5402 185.588C24.2123 184.983 24.0223 184.303 23.9857 183.605V104.666Z" fill="#283618"/>
<path opacity="0.3" d="M23.9857 104.666C24.0212 103.968 24.2107 103.288 24.5387 102.682C24.8668 102.076 25.3242 101.561 25.8738 101.18L122.39 41.7201C122.975 41.4067 123.62 41.2434 124.274 41.2434C124.929 41.2434 125.574 41.4067 126.159 41.7201L128.287 43.0373C128.837 43.4177 129.296 43.9321 129.624 44.5382C129.952 45.1443 130.141 45.8249 130.175 46.524V125.462C130.137 126.161 129.947 126.84 129.619 127.445C129.291 128.051 128.835 128.566 128.287 128.949L31.7703 188.401C31.1853 188.718 30.5384 188.883 29.8823 188.883C29.2261 188.883 28.5792 188.718 27.9942 188.401L25.8738 187.092C25.325 186.709 24.8682 186.194 24.5402 185.588C24.2123 184.983 24.0223 184.303 23.9857 183.605V104.666Z" fill="black"/>
<path d="M32.8306 107.797L24.5376 102.683C24.1986 103.283 24.0086 103.966 23.9857 104.666V183.605C24.0223 184.303 24.2123 184.983 24.5402 185.588C24.8682 186.194 25.325 186.709 25.8738 187.092L27.9942 188.401C28.5792 188.718 29.2261 188.883 29.8823 188.883C30.5384 188.883 31.1853 188.718 31.7703 188.401L32.8306 187.75V107.797Z" fill="#283618"/>
<path opacity="0.5" d="M32.8306 107.797L24.5376 102.683C24.1986 103.283 24.0086 103.966 23.9857 104.666V183.605C24.0223 184.303 24.2123 184.983 24.5402 185.588C24.8682 186.194 25.325 186.709 25.8738 187.092L27.9942 188.401C28.5792 188.718 29.2261 188.883 29.8823 188.883C30.5384 188.883 31.1853 188.718 31.7703 188.401L32.8306 187.75V107.797Z" fill="black"/>
<path d="M130.175 46.524V125.462C130.15 126.185 129.947 126.888 129.586 127.5C129.308 128.016 128.932 128.464 128.483 128.817L128.41 128.864L128.287 128.949L31.7704 188.401C31.5857 188.54 31.3711 188.627 31.1464 188.654C30.9217 188.681 30.6942 188.648 30.4851 188.556C30.284 188.421 30.1215 188.229 30.0153 188.003C29.909 187.776 29.863 187.522 29.8824 187.27V108.3C29.8659 108.018 29.914 107.735 30.0224 107.477C30.1308 107.218 30.2964 106.992 30.5049 106.816C30.7133 106.641 30.9585 106.522 31.2194 106.471C31.4803 106.419 31.7491 106.435 32.0028 106.518L72.5888 116.816L77.9044 118.164C78.5318 118.289 79.1795 118.229 79.7772 117.99C80.3749 117.751 80.9 117.342 81.2957 116.808L87.4537 107.657L128.904 46.0824C129.601 45.0441 130.175 45.2378 130.175 46.524Z" fill="#283618"/>
<path opacity="0.2" d="M130.175 46.524V125.462C130.15 126.185 129.947 126.888 129.586 127.5C129.308 128.016 128.932 128.464 128.483 128.817L128.41 128.864L128.287 128.949L31.7704 188.401C31.5857 188.54 31.3711 188.627 31.1464 188.654C30.9217 188.681 30.6942 188.648 30.4851 188.556C30.284 188.421 30.1215 188.229 30.0153 188.003C29.909 187.776 29.863 187.522 29.8824 187.27V108.3C29.8659 108.018 29.914 107.735 30.0224 107.477C30.1308 107.218 30.2964 106.992 30.5049 106.816C30.7133 106.641 30.9585 106.522 31.2194 106.471C31.4803 106.419 31.7491 106.435 32.0028 106.518L72.5888 116.816L77.9044 118.164C78.5318 118.289 79.1795 118.229 79.7772 117.99C80.3749 117.751 80.9 117.342 81.2957 116.808L87.4537 107.657L128.904 46.0824C129.601 45.0441 130.175 45.2378 130.175 46.524Z" fill="black"/>
<path d="M128.287 128.949L128.41 128.864L128.483 128.817C128.932 128.464 129.308 128.016 129.586 127.5C129.943 126.898 130.146 126.206 130.175 125.493L87.4536 107.673L116.065 136.496L128.287 128.949Z" fill="#283618"/>
<path opacity="0.6" d="M128.287 128.949L128.41 128.864L128.483 128.817C128.932 128.464 129.308 128.016 129.586 127.5C129.943 126.898 130.146 126.206 130.175 125.493L87.4536 107.673L116.065 136.496L128.287 128.949Z" fill="black"/>
<path d="M29.8823 187.27C29.8545 187.527 29.8949 187.788 29.9989 188.022C30.1029 188.256 30.2662 188.454 30.4705 188.595C30.6796 188.686 30.9071 188.72 31.1318 188.693C31.3565 188.666 31.5711 188.579 31.7558 188.44L65.0002 167.899L72.5888 116.761L29.8823 185.929V187.27Z" fill="#283618"/>
<path opacity="0.6" d="M29.8823 187.27C29.8545 187.527 29.8949 187.788 29.9989 188.022C30.1029 188.256 30.2662 188.454 30.4705 188.595C30.6796 188.686 30.9071 188.72 31.1318 188.693C31.3565 188.666 31.5711 188.579 31.7558 188.44L65.0002 167.899L72.5888 116.761L29.8823 185.929V187.27Z" fill="black"/>
<path d="M129.586 127.5C129.308 128.016 128.932 128.464 128.483 128.817L128.41 128.864L31.7703 188.401C31.5856 188.54 31.371 188.627 31.1463 188.654C30.9216 188.681 30.6941 188.648 30.485 188.556L76.7061 109.827C77.6351 108.25 79.0654 107.083 80.7351 106.539C82.4048 105.995 84.2021 106.112 85.7979 106.867L129.586 127.5Z" fill="#283618"/>
<path opacity="0.2" d="M129.586 127.5C129.308 128.016 128.932 128.464 128.483 128.817L128.41 128.864L31.7703 188.401C31.5856 188.54 31.371 188.627 31.1463 188.654C30.9216 188.681 30.6941 188.648 30.485 188.556L76.7061 109.827C77.6351 108.25 79.0654 107.083 80.7351 106.539C82.4048 105.995 84.2021 106.112 85.7979 106.867L129.586 127.5Z" fill="black"/>
<path d="M29.8822 105.976L74.2734 126.896C75.8717 127.649 77.6708 127.762 79.3407 127.214C81.0107 126.666 82.4395 125.494 83.3651 123.913L129.978 44.3158L29.8822 105.976Z" fill="#283618"/>
<path opacity="0.6" d="M29.8822 105.976L74.2734 126.896C75.8717 127.649 77.6708 127.762 79.3407 127.214C81.0107 126.666 82.4395 125.494 83.3651 123.913L129.978 44.3158L29.8822 105.976Z" fill="black"/>
<path d="M29.8822 105.976L74.5857 123.797C76.1305 124.412 77.8256 124.448 79.3923 123.899C80.9589 123.35 82.3036 122.248 83.2054 120.775L129.978 44.3158L29.8822 105.976Z" fill="#283618"/>
<path opacity="0.2" d="M29.8822 105.976L74.5857 123.797C76.1305 124.412 77.8256 124.448 79.3923 123.899C80.9589 123.35 82.3036 122.248 83.2054 120.775L129.978 44.3158L29.8822 105.976Z" fill="black"/>
<path d="M40.47 114.39C40.5037 113.691 40.6924 113.011 41.0207 112.404C41.3489 111.798 41.8072 111.284 42.358 110.904L138.874 51.4441C139.459 51.127 140.106 50.9617 140.762 50.9617C141.418 50.9617 142.065 51.127 142.65 51.4441L144.778 52.7535C145.326 53.1361 145.782 53.6512 146.109 54.257C146.436 54.8628 146.624 55.5422 146.659 56.2402V135.179C146.623 135.876 146.434 136.555 146.107 137.161C145.781 137.767 145.325 138.282 144.778 138.665L48.2546 198.117C47.6699 198.431 47.0245 198.594 46.3702 198.594C45.7158 198.594 45.0705 198.431 44.4857 198.117L42.358 196.808C41.8097 196.425 41.3532 195.91 41.0253 195.304C40.6973 194.698 40.5072 194.019 40.47 193.321V114.39Z" fill="#455A64"/>
<path d="M40.47 114.39C40.5037 113.691 40.6924 113.011 41.0207 112.404C41.3489 111.798 41.8072 111.284 42.358 110.904L138.874 51.4441C139.459 51.127 140.106 50.9617 140.762 50.9617C141.418 50.9617 142.065 51.127 142.65 51.4441L144.778 52.7535C145.326 53.1361 145.782 53.6512 146.109 54.257C146.436 54.8628 146.624 55.5422 146.659 56.2402V135.179C146.623 135.876 146.434 136.555 146.107 137.161C145.781 137.767 145.325 138.282 144.778 138.665L48.2546 198.117C47.6699 198.431 47.0245 198.594 46.3702 198.594C45.7158 198.594 45.0705 198.431 44.4857 198.117L42.358 196.808C41.8097 196.425 41.3532 195.91 41.0253 195.304C40.6973 194.698 40.5072 194.019 40.47 193.321V114.39Z" fill="#455A64"/>
<path d="M49.3221 117.536L41.0219 112.43C40.6819 113.03 40.4919 113.713 40.47 114.414V193.329C40.5072 194.027 40.6973 194.706 41.0253 195.312C41.3532 195.917 41.8097 196.432 42.358 196.816L44.4857 198.125C45.0705 198.438 45.7158 198.602 46.3702 198.602C47.0245 198.602 47.6699 198.438 48.2546 198.125L49.3221 197.466V117.536Z" fill="#263238"/>
<path d="M146.666 56.2402V135.179C146.642 135.901 146.439 136.604 146.078 137.216C145.799 137.732 145.423 138.181 144.974 138.534L144.902 138.58L144.778 138.665L48.2619 198.117C48.0772 198.256 47.8626 198.344 47.6379 198.371C47.4132 198.398 47.1858 198.364 46.9766 198.272C46.7723 198.132 46.609 197.934 46.505 197.699C46.401 197.465 46.3606 197.205 46.3884 196.947V118.016C46.372 117.734 46.42 117.451 46.5285 117.193C46.6369 116.934 46.8024 116.708 47.0109 116.533C47.2194 116.357 47.4646 116.239 47.7255 116.187C47.9864 116.135 48.2552 116.151 48.5088 116.234L89.0949 126.532L94.4105 127.88C95.0379 128.005 95.6855 127.945 96.2832 127.706C96.881 127.467 97.4061 127.058 97.8017 126.524L103.952 117.373L145.403 55.7986C146.071 54.7758 146.666 54.954 146.666 56.2402Z" fill="#37474F"/>
<path d="M144.778 138.665L144.901 138.58L144.974 138.534C145.423 138.181 145.799 137.732 146.078 137.216C146.43 136.615 146.631 135.926 146.659 135.217L103.945 117.397L132.549 146.204L144.778 138.665Z" fill="#263238"/>
<path d="M46.3738 196.955C46.346 197.212 46.3864 197.473 46.4904 197.707C46.5944 197.941 46.7577 198.14 46.962 198.28C47.1711 198.372 47.3986 198.405 47.6233 198.378C47.848 198.351 48.0626 198.264 48.2473 198.125L81.4772 177.654L89.0657 126.516L46.3593 195.63L46.3738 196.955Z" fill="#263238"/>
<path d="M146.071 137.216C145.792 137.732 145.416 138.181 144.967 138.534L144.894 138.58L48.2619 198.117C48.0772 198.256 47.8625 198.344 47.6379 198.371C47.4132 198.398 47.1857 198.364 46.9766 198.272L93.1905 119.551C94.1172 117.971 95.5465 116.801 97.2164 116.254C98.8862 115.708 100.685 115.822 102.282 116.575L146.071 137.216Z" fill="#37474F"/>
<path d="M46.3739 115.7L90.7651 136.62C92.3625 137.371 94.16 137.482 95.8283 136.934C97.4966 136.387 98.9242 135.216 99.8496 133.637L146.463 54.001L46.3739 115.7Z" fill="#263238"/>
<path d="M46.3739 115.7L91.0701 133.521C92.6159 134.138 94.3126 134.175 95.8808 133.626C97.449 133.076 98.795 131.974 99.6971 130.499L146.463 54.001L46.3739 115.7Z" fill="#37474F"/>
<path d="M111.265 177.05V98.1114C111.332 96.6137 111.771 95.1619 112.536 93.9041L158.568 25.5109C159.408 24.2614 160.578 23.3068 161.928 22.7687C163.278 22.2306 164.747 22.1333 166.149 22.4891L209.437 33.4683C210.832 33.8645 212.177 34.4367 213.445 35.1729L215.573 36.4824C216.12 36.8663 216.575 37.3817 216.902 37.9872C217.228 38.5927 217.417 39.2715 217.454 39.969V118.908C217.416 119.605 217.227 120.283 216.9 120.888C216.574 121.494 216.119 122.009 215.573 122.394L119.049 181.846C118.465 182.161 117.82 182.326 117.165 182.326C116.51 182.326 115.865 182.161 115.281 181.846L113.153 180.537C112.604 180.154 112.147 179.639 111.819 179.033C111.491 178.428 111.302 177.748 111.265 177.05Z" fill="#283618"/>
<path opacity="0.3" d="M111.265 177.05V98.1114C111.332 96.6137 111.771 95.1619 112.536 93.9041L158.568 25.5109C159.408 24.2614 160.578 23.3068 161.928 22.7687C163.278 22.2306 164.747 22.1333 166.149 22.4891L209.437 33.4683C210.832 33.8645 212.177 34.4367 213.445 35.1729L215.573 36.4824C216.12 36.8663 216.575 37.3817 216.902 37.9872C217.228 38.5927 217.417 39.2715 217.454 39.969V118.908C217.416 119.605 217.227 120.283 216.9 120.888C216.574 121.494 216.119 122.009 215.573 122.394L119.049 181.846C118.465 182.161 117.82 182.326 117.165 182.326C116.51 182.326 115.865 182.161 115.281 181.846L113.153 180.537C112.604 180.154 112.147 179.639 111.819 179.033C111.491 178.428 111.302 177.748 111.265 177.05Z" fill="white"/>
<path d="M120.11 59.9594V160.686C120.11 161.964 120.959 162.491 121.998 161.848L212.618 106.061C213.168 105.68 213.625 105.165 213.953 104.559C214.281 103.953 214.471 103.273 214.506 102.574V1.84799C214.506 0.561788 213.663 0.0426593 212.618 0.685758L121.998 56.4727C121.448 56.8544 120.991 57.3691 120.663 57.975C120.335 58.5808 120.145 59.2607 120.11 59.9594Z" fill="#FAFAFA"/>
<path d="M121.155 162.522C120.921 162.524 120.691 162.46 120.487 162.336C120.239 162.159 120.04 161.914 119.912 161.626C119.784 161.338 119.732 161.018 119.761 160.701V59.9748C119.796 59.2071 120.001 58.4593 120.361 57.7935C120.721 57.1278 121.225 56.5634 121.831 56.1472L212.45 0.360324C212.687 0.154747 212.976 0.0308343 213.281 0.00504335C213.585 -0.0207476 213.889 0.0528045 214.153 0.215932C214.417 0.37906 214.628 0.624038 214.759 0.918318C214.889 1.2126 214.932 1.54225 214.883 1.86347V102.59C214.849 103.357 214.644 104.104 214.284 104.768C213.923 105.433 213.419 105.996 212.813 106.41L122.194 162.197C121.881 162.401 121.522 162.514 121.155 162.522ZM213.46 0.755483C213.225 0.769797 212.998 0.847088 212.799 0.980181L122.179 56.8058C121.686 57.1552 121.275 57.6217 120.979 58.1688C120.683 58.716 120.51 59.3288 120.473 59.9593V160.686C120.429 160.867 120.443 161.059 120.511 161.232C120.579 161.405 120.698 161.549 120.85 161.643C121.002 161.737 121.179 161.775 121.353 161.752C121.528 161.729 121.69 161.646 121.816 161.515L212.436 105.728C212.93 105.379 213.341 104.913 213.637 104.365C213.933 103.818 214.106 103.205 214.142 102.574V1.84798C214.163 1.66627 214.14 1.48198 214.075 1.31252C214.01 1.14306 213.906 0.994017 213.772 0.879457C213.68 0.808725 213.572 0.765873 213.46 0.755483Z" fill="#E0E0E0"/>
<path d="M118.156 100.033L111.621 96.0039C111.409 96.6846 111.292 97.3946 111.272 98.1114V177.05C111.309 177.748 111.499 178.428 111.827 179.033C112.155 179.639 112.611 180.154 113.16 180.537L115.281 181.846C115.864 182.163 116.51 182.328 117.165 182.328C117.82 182.328 118.466 182.163 119.05 181.846L119.957 181.296L118.156 100.033Z" fill="#283618"/>
<g opacity="0.1">
<path d="M118.156 100.033L111.621 96.0039C111.409 96.6846 111.292 97.3946 111.272 98.1114V177.05C111.309 177.748 111.499 178.428 111.827 179.033C112.155 179.639 112.611 180.154 113.16 180.537L115.281 181.846C115.864 182.163 116.51 182.328 117.165 182.328C117.82 182.328 118.466 182.163 119.05 181.846L119.957 181.296L118.156 100.033Z" fill="black"/>
</g>
<path d="M217.461 39.969V118.908C217.437 119.63 217.234 120.333 216.873 120.945C216.594 121.461 216.218 121.909 215.769 122.262L215.697 122.309L215.573 122.394L119.057 181.846C118.872 181.985 118.658 182.072 118.433 182.099C118.208 182.126 117.981 182.093 117.772 182.001C117.567 181.861 117.404 181.662 117.3 181.428C117.196 181.194 117.156 180.933 117.183 180.676V101.745C117.167 101.463 117.215 101.18 117.323 100.922C117.432 100.663 117.597 100.437 117.806 100.261C118.014 100.086 118.26 99.9675 118.521 99.9155C118.781 99.8636 119.05 99.88 119.304 99.9632L159.868 110.261L165.184 111.609C165.812 111.736 166.461 111.676 167.06 111.437C167.66 111.198 168.186 110.789 168.582 110.253L174.74 101.102L216.19 39.5274C216.888 38.5046 217.461 38.6828 217.461 39.969Z" fill="#283618"/>
<path opacity="0.3" d="M217.461 39.969V118.908C217.437 119.63 217.234 120.333 216.873 120.945C216.594 121.461 216.218 121.909 215.769 122.262L215.697 122.309L215.573 122.394L119.057 181.846C118.872 181.985 118.658 182.072 118.433 182.099C118.208 182.126 117.981 182.093 117.772 182.001C117.567 181.861 117.404 181.662 117.3 181.428C117.196 181.194 117.156 180.933 117.183 180.676V101.745C117.167 101.463 117.215 101.18 117.323 100.922C117.432 100.663 117.597 100.437 117.806 100.261C118.014 100.086 118.26 99.9675 118.521 99.9155C118.781 99.8636 119.05 99.88 119.304 99.9632L159.868 110.261L165.184 111.609C165.812 111.736 166.461 111.676 167.06 111.437C167.66 111.198 168.186 110.789 168.582 110.253L174.74 101.102L216.19 39.5274C216.888 38.5046 217.461 38.6828 217.461 39.969Z" fill="white"/>
<path d="M215.573 122.394L215.696 122.309L215.769 122.262C216.218 121.909 216.594 121.461 216.873 120.945C217.226 120.341 217.426 119.65 217.454 118.938L174.74 101.118L203.344 129.933L215.573 122.394Z" fill="#283618"/>
<path d="M117.169 180.684C117.141 180.941 117.181 181.202 117.285 181.436C117.389 181.67 117.553 181.869 117.757 182.009C117.966 182.1 118.194 182.134 118.418 182.107C118.643 182.08 118.858 181.993 119.042 181.854L152.272 161.383L159.861 110.245L117.154 179.359L117.169 180.684Z" fill="#283618"/>
<path d="M216.873 120.945C216.594 121.461 216.218 121.909 215.769 122.262L215.697 122.309L119.057 181.846C118.872 181.985 118.658 182.072 118.433 182.099C118.208 182.126 117.981 182.093 117.772 182.001L163.986 103.279C164.912 101.702 166.34 100.533 168.008 99.9862C169.677 99.4398 171.473 99.5527 173.07 100.304L216.873 120.945Z" fill="#283618"/>
<path opacity="0.3" d="M216.873 120.945C216.594 121.461 216.218 121.909 215.769 122.262L215.697 122.309L119.057 181.846C118.872 181.985 118.658 182.072 118.433 182.099C118.208 182.126 117.981 182.093 117.772 182.001L163.986 103.279C164.912 101.702 166.34 100.533 168.008 99.9862C169.677 99.4398 171.473 99.5527 173.07 100.304L216.873 120.945Z" fill="white"/>
<path d="M160.013 83.1574C159.166 83.2973 158.3 83.2152 157.489 82.9183C156.678 82.6213 155.947 82.1183 155.358 81.4528C154.255 80.1433 153.703 78.1211 153.703 75.4015C153.705 72.3329 154.321 69.3002 155.511 66.5065C156.732 63.6319 158.419 61.0091 160.493 58.7584C162.722 56.2911 165.264 54.1683 168.045 52.4513C170.77 50.7777 173.097 49.8505 175.023 49.6698C176.962 49.4838 178.422 50.0184 179.424 51.2581C180.426 52.4978 180.92 54.3961 180.92 56.9375C180.962 59.458 180.402 61.9484 179.293 64.1744C178.316 66.1902 176.826 67.8712 174.994 69.0247C174.362 69.5041 173.587 69.7191 172.816 69.6291C172.541 69.5711 172.289 69.4299 172.088 69.2224C171.887 69.0148 171.746 68.7498 171.683 68.4591C171.078 69.6794 170.31 70.7992 169.403 71.7831C168.485 72.7937 167.438 73.6621 166.295 74.3632C164.319 75.5564 162.744 75.9128 161.582 75.5022C160.42 75.0915 159.868 73.8363 159.868 71.7443C159.885 69.1153 160.644 66.5528 162.047 64.3913C163.574 61.995 165.602 60.0108 167.972 58.5956C168.962 57.9667 170.037 57.5066 171.16 57.232C171.995 56.9907 172.874 56.9907 173.709 57.232V65.3908C173.709 66.0494 173.818 66.4523 174.028 66.6073C174.239 66.7622 174.588 66.6848 175.081 66.3826C176.001 65.7441 176.682 64.7818 177.006 63.663C177.497 62.1517 177.73 60.5589 177.696 58.9598C177.696 56.9246 177.279 55.4447 176.447 54.5201C176.002 54.0559 175.459 53.7124 174.864 53.5183C174.269 53.3241 173.639 53.2851 173.026 53.4044C171.253 53.6934 169.555 54.3686 168.037 55.3879C164.827 57.2882 162.059 59.9366 159.941 63.1361C157.983 66.1386 156.943 69.7137 156.963 73.3714C156.963 75.5977 157.392 77.2223 158.249 78.245C158.693 78.757 159.249 79.1437 159.867 79.3709C160.486 79.598 161.147 79.6584 161.792 79.5467C163.6 79.2736 165.332 78.5949 166.876 77.5555C167.941 76.898 168.949 76.1409 169.889 75.293C170.764 74.5222 171.56 73.6547 172.264 72.7051C172.337 72.6051 172.422 72.5165 172.518 72.4417C172.583 72.4029 172.649 72.4417 172.707 72.5346L173.506 74.0843C173.535 74.1457 173.557 74.2108 173.571 74.278C173.546 74.4506 173.466 74.6089 173.346 74.7274C172.468 75.853 171.496 76.8904 170.441 77.8266C169.33 78.8209 168.142 79.7126 166.89 80.492C164.804 81.8976 162.458 82.8068 160.013 83.1574ZM169.454 68.5908C170.145 67.7203 170.548 66.6311 170.601 65.4915V60.7651C169.564 60.8585 168.566 61.226 167.696 61.8344C166.311 62.6658 165.131 63.8371 164.254 65.2513C163.431 66.5488 162.989 68.0781 162.983 69.6446C162.983 70.954 163.288 71.7366 163.906 71.969C164.523 72.2015 165.474 71.969 166.774 71.14C167.826 70.4904 168.747 69.6238 169.483 68.5908H169.454Z" fill="#E0E0E0"/>
<path d="M67.5274 90.9211L60.4471 86.5434H60.3963C57.9781 85.0867 54.645 85.3037 50.956 87.5739C43.5417 92.1376 37.5363 103.241 37.5363 112.368C37.5363 116.932 39.0322 120.116 41.4503 121.666L48.0368 125.687L49.2277 123.572C50.5784 123.249 51.8758 122.711 53.0764 121.976C60.4834 117.404 66.4962 106.301 66.4962 97.1816C66.4922 95.9491 66.3508 94.7214 66.075 93.5245L67.5274 90.9211Z" fill="#F28F8F"/>
<path d="M67.5274 90.9211L60.4471 86.5434H60.3963C57.9781 85.0867 54.645 85.3037 50.956 87.5739C43.5417 92.1376 37.5363 103.241 37.5363 112.368C37.5363 116.932 39.0322 120.116 41.4503 121.666L48.0368 125.687L49.2277 123.572C50.5784 123.249 51.8758 122.711 53.0764 121.976C60.4834 117.404 66.4962 106.301 66.4962 97.1816C66.4922 95.9491 66.3508 94.7214 66.075 93.5245L67.5274 90.9211Z" fill="#283618"/>
<path opacity="0.4" d="M67.5274 90.9211L60.4471 86.5434H60.3963C57.9781 85.0867 54.645 85.3037 50.956 87.5739C43.5417 92.1376 37.5363 103.241 37.5363 112.368C37.5363 116.932 39.0322 120.116 41.4503 121.666L48.0368 125.687L49.2277 123.572C50.5784 123.249 51.8758 122.711 53.0764 121.976C60.4834 117.404 66.4962 106.301 66.4962 97.1816C66.4922 95.9491 66.3508 94.7214 66.075 93.5245L67.5274 90.9211Z" fill="black"/>
<path d="M57.7602 91.7346C50.3459 96.3061 44.3405 107.409 44.3405 116.529C44.3405 125.648 50.3459 129.36 57.7602 124.796C65.1745 120.232 71.1799 109.129 71.1799 100.002C71.1799 90.8746 65.1745 87.171 57.7602 91.7346Z" fill="#283618"/>
<path d="M52.5172 118.714C52.3793 118.714 52.3066 118.629 52.3066 118.497C52.3209 118.351 52.3603 118.209 52.4228 118.078L53.0982 116.459C53.1429 116.301 53.2315 116.16 53.3523 116.056C53.4529 116.008 53.5616 115.981 53.6719 115.979C54.2761 115.94 54.8724 115.813 55.4437 115.599C56.2034 115.326 56.9336 114.968 57.6223 114.53C58.6937 113.91 59.6333 113.061 60.3817 112.035C60.9431 111.259 61.2562 110.311 61.2749 109.331C61.2749 107.618 60.2946 107.37 58.3339 108.556L56.4241 109.788C56.1118 109.974 55.894 110.044 55.7632 109.982C55.6325 109.92 55.5672 109.734 55.5672 109.424V108.781C55.5568 108.507 55.6253 108.237 55.7632 108.006C55.9381 107.754 56.164 107.547 56.4241 107.401L58.3194 106.231C59.0788 105.791 59.7229 105.154 60.1929 104.38C60.5868 103.73 60.803 102.976 60.8174 102.202C60.8174 100.544 59.7233 100.389 57.5351 101.738C56.1894 102.556 54.9777 103.603 53.9478 104.837C53.851 104.953 53.744 105.06 53.6283 105.155C53.5855 105.176 53.5372 105.182 53.4911 105.171C53.445 105.159 53.4038 105.132 53.3741 105.093L52.7278 104.318C52.6918 104.282 52.6629 104.239 52.6429 104.191C52.6229 104.143 52.6123 104.091 52.6116 104.039C52.6264 103.861 52.6982 103.694 52.815 103.566C53.4583 102.708 54.1889 101.928 54.9935 101.242C55.9304 100.427 56.9286 99.6963 57.9781 99.0567C58.9255 98.4275 59.9707 97.9841 61.0643 97.7472C61.4085 97.6577 61.7668 97.6495 62.1142 97.7231C62.4617 97.7967 62.7899 97.9504 63.0759 98.1734C63.3337 98.4387 63.5327 98.7621 63.6584 99.1201C63.784 99.478 63.8331 99.8614 63.802 100.242C63.7856 101.095 63.6078 101.936 63.2792 102.714C62.9282 103.612 62.4371 104.44 61.8268 105.162C62.1403 105.05 62.4752 105.025 62.8004 105.088C63.1255 105.152 63.4302 105.303 63.6858 105.526C63.9096 105.804 64.0794 106.127 64.1853 106.475C64.2913 106.824 64.3313 107.191 64.3031 107.556C64.2476 109.274 63.6832 110.929 62.691 112.283C61.473 114.026 59.9176 115.469 58.1306 116.513C55.5744 118.109 53.7033 118.843 52.5172 118.714Z" fill="white"/>
<path d="M204.797 202.836L204.934 202.704C205.036 202.611 205.145 202.518 205.239 202.417L205.566 202.076L205.893 201.743C206.084 201.552 206.266 201.35 206.438 201.139L209.023 203.2L210.744 204.571C210.117 205.296 209.607 206.126 209.233 207.028C209.233 207.028 208.718 207.919 206.968 207.469C204.804 206.935 204.462 203.541 204.797 202.836Z" fill="#FFA8A7"/>
<path d="M179.475 201.891C177.5 199.442 179.257 195.374 181.174 190.098C183.28 184.294 186.533 174.431 186.533 174.431L209.633 169.34C209.633 169.34 234.243 168.837 236.501 173.858C238.331 177.879 222.123 183.93 219.799 184.147L205.574 184.945L204.078 185.72L194.085 199.21L179.475 201.891Z" fill="#283618"/>
<path d="M222.036 177.972C220.242 179.918 218.571 181.989 217.033 184.17C212.872 190.369 206.285 201.627 206.285 201.627C206.285 201.627 207.309 205.191 210.453 205.036C210.453 205.036 232.093 183.473 233.865 181.482C236.545 178.46 238.694 173.478 234.061 173.067C229.428 172.657 223.837 175.895 222.036 177.972Z" fill="#283618"/>
<path d="M216.917 184.294C216.917 184.294 220.78 178.266 224.781 175.771C224.781 175.771 220.802 176.608 214.774 184.434L216.917 184.294Z" fill="#283618"/>
<path opacity="0.1" d="M216.917 184.294C216.917 184.294 220.78 178.266 224.781 175.771C224.781 175.771 220.802 176.608 214.774 184.434L216.917 184.294Z" fill="black"/>
<path d="M219.545 191.919L218.028 192.229L219.436 197.784C219.436 197.784 220.802 197.644 221.274 197.675C221.961 197.501 222.623 197.228 223.242 196.862L222.878 193.468L221.208 191.609L219.545 191.919Z" fill="#FFA8A7"/>
<path d="M231.527 193.228C232.252 193.54 232.908 194.007 233.455 194.602C234.003 195.197 234.429 195.905 234.708 196.684C235.031 197.498 235.296 198.337 235.499 199.194C235.739 200.093 235.623 201.619 234.555 201.867C234.208 201.911 233.857 201.843 233.546 201.674C231.404 200.79 229.312 199.768 227.119 199.024C225.24 198.281 223.272 197.825 221.274 197.668C221.728 196.922 221.955 196.044 221.924 195.155C221.893 194.266 221.605 193.409 221.099 192.701C220.669 192.277 220.126 192.006 219.545 191.926C220.097 191.663 220.613 191.322 221.143 191.004C222.13 190.268 223.339 189.95 224.534 190.113C225.449 190.322 226.146 191.097 226.923 191.663C228.405 192.693 229.835 192.624 231.527 193.228Z" fill="#263238"/>
<path d="M182.59 196.568C184.5 195.94 187.55 195.382 196.598 194.886C205.646 194.39 218.028 192.221 218.028 192.221C220.133 194.383 219.436 197.776 219.436 197.776C219.436 197.776 203.366 203.2 198.13 203.921C189.794 205.067 186.918 204.982 183.157 204.122C178.93 203.153 176.265 198.636 182.59 196.568Z" fill="#283618"/>
<path d="M215.66 150.582L222.457 167.915L217.592 171.107L208.239 154.208L215.66 150.582Z" fill="#F28F8F"/>
<path d="M201.601 134.249C205.319 134.295 209.408 135.737 210.817 138.844L216.626 151.628C216.626 151.628 213.344 156.757 208.13 156.393L201.601 134.249Z" fill="#E0E0E0"/>
<path d="M176.882 161.189C176.926 160.515 177.834 157.222 178.807 153.674L185.865 156.277L183.97 162.654L178.022 168.674C176.734 166.436 176.325 163.747 176.882 161.189Z" fill="#FFA8A7"/>
<path d="M193.998 134.489C189.569 135.628 183.534 137.108 181.784 142.237C180.034 147.367 177.529 156.424 177.529 156.424C178.502 158.222 183.839 159.709 185.691 158.671L186.562 155.572V174.415C190.026 178.437 207.113 177.406 209.662 169.325V143.655C209.662 139.549 207.527 134.613 201.623 134.249L193.998 134.489Z" fill="#FAFAFA"/>
<path d="M186.54 155.587L188.763 148.126L186.54 158.927V155.587Z" fill="#E0E0E0"/>
<path d="M192.314 113.484C191.919 113.429 191.518 113.471 191.141 113.605C190.764 113.739 190.42 113.962 190.135 114.259C189.198 115.281 189.409 117.172 190.135 121.511L193.04 121.86L192.314 113.484Z" fill="#263238"/>
<path d="M209.168 112.229C209.79 112.231 210.406 112.097 210.976 111.833C211.862 111.291 212.095 112.368 211.608 113.298C211.286 113.968 210.809 114.54 210.222 114.957C209.635 115.375 208.957 115.625 208.253 115.684C208.253 115.553 207.425 113.275 207.425 113.275L209.168 112.229Z" fill="#263238"/>
<path d="M193.672 121.906C193.243 122.177 192.626 121.302 192.096 120.705C191.888 120.451 191.623 120.258 191.325 120.144C191.028 120.03 190.709 119.999 190.397 120.053C190.085 120.107 189.792 120.246 189.544 120.454C189.296 120.663 189.102 120.936 188.98 121.247C188.102 123.223 190.099 125.85 191.268 126.718C191.596 127.02 192.005 127.203 192.437 127.242C192.868 127.281 193.301 127.173 193.672 126.935L193.977 134.489C194.494 135.7 195.286 136.755 196.279 137.559C197.273 138.364 198.438 138.893 199.67 139.099C203.824 139.696 202.967 136.039 201.601 134.249V131.483C202.641 131.72 203.71 131.777 204.768 131.653C205.305 131.498 206.598 129.832 207.433 127.965C208.369 125.873 209.931 122.154 208.544 115.855C207.048 109.098 200.243 108.881 196.199 111.616C192.154 114.352 193.672 121.906 193.672 121.906Z" fill="#FFA8A7"/>
<path d="M193.672 122.673C193.454 122.673 192.633 121.224 192.096 120.705C191.37 119.984 192.314 113.484 192.314 113.484C192.314 113.484 191.587 111.012 193.04 109.377C194.492 107.742 197.339 108.014 199.416 107.936C201.96 107.951 204.481 107.41 206.823 106.348C209.771 104.984 209.989 104.798 210.352 106.2C210.715 107.603 210.86 110.741 209.103 112.856L208.144 114.522C208.144 114.522 207.251 115.297 204.513 115.684C201.776 116.072 197.085 114.468 196.525 114.383C195.727 114.266 195.56 115.088 195.131 117.335C194.724 119.31 194.398 122.658 193.672 122.673Z" fill="#263238"/>
<path d="M192.321 113.987L189.721 112.5C189.807 112.315 189.926 112.151 190.071 112.016C190.217 111.881 190.387 111.779 190.57 111.715C190.753 111.651 190.946 111.626 191.138 111.642C191.331 111.659 191.518 111.716 191.689 111.81C192.035 112.018 192.294 112.36 192.411 112.765C192.529 113.17 192.496 113.607 192.321 113.987Z" fill="#263238"/>
<path d="M201.594 131.483C201.594 131.483 197.746 130.654 196.402 129.933C195.612 129.491 194.964 128.805 194.543 127.965C194.747 128.808 195.108 129.598 195.603 130.29C196.584 131.63 201.594 132.614 201.594 132.614V131.483Z" fill="#F28F8F"/>
<path d="M201.718 121.751C201.712 121.912 201.662 122.068 201.574 122.199C201.486 122.33 201.364 122.43 201.223 122.487C201.082 122.545 200.928 122.557 200.781 122.522C200.633 122.487 200.499 122.406 200.394 122.29C200.289 122.174 200.219 122.028 200.191 121.869C200.164 121.711 200.181 121.547 200.24 121.399C200.299 121.251 200.397 121.124 200.523 121.035C200.649 120.946 200.797 120.899 200.948 120.899C201.051 120.901 201.152 120.924 201.247 120.968C201.341 121.012 201.427 121.076 201.498 121.155C201.57 121.234 201.626 121.327 201.663 121.43C201.701 121.532 201.719 121.641 201.718 121.751Z" fill="#263238"/>
<path d="M200.904 118.652L199.249 119.62C199.134 119.378 199.11 119.098 199.181 118.838C199.253 118.578 199.414 118.356 199.633 118.218C199.743 118.154 199.863 118.115 199.988 118.102C200.112 118.09 200.237 118.104 200.356 118.145C200.475 118.185 200.584 118.251 200.679 118.338C200.773 118.425 200.85 118.532 200.904 118.652Z" fill="#263238"/>
<path d="M201.26 127.252L203.025 127.965C202.986 128.091 202.923 128.207 202.841 128.306C202.76 128.406 202.66 128.487 202.548 128.545C202.437 128.603 202.315 128.636 202.191 128.643C202.067 128.65 201.943 128.63 201.827 128.585C201.589 128.484 201.397 128.289 201.291 128.041C201.186 127.792 201.174 127.509 201.26 127.252Z" fill="#F28F8F"/>
<path d="M208.595 119.334L207.091 118.094C207.163 117.986 207.253 117.895 207.359 117.826C207.464 117.757 207.581 117.711 207.703 117.692C207.825 117.672 207.95 117.679 208.069 117.712C208.189 117.745 208.301 117.804 208.398 117.885C208.599 118.053 208.732 118.298 208.768 118.567C208.804 118.837 208.742 119.111 208.595 119.334Z" fill="#263238"/>
<path d="M208.13 121.519C208.124 121.68 208.074 121.835 207.986 121.966C207.898 122.097 207.776 122.198 207.635 122.255C207.494 122.312 207.34 122.324 207.193 122.289C207.045 122.254 206.911 122.174 206.806 122.058C206.701 121.942 206.631 121.795 206.604 121.637C206.576 121.478 206.593 121.315 206.652 121.167C206.711 121.018 206.81 120.892 206.935 120.803C207.061 120.714 207.209 120.666 207.36 120.666C207.463 120.668 207.565 120.692 207.659 120.736C207.753 120.78 207.839 120.843 207.91 120.922C207.982 121.001 208.038 121.095 208.076 121.197C208.113 121.3 208.132 121.409 208.13 121.519Z" fill="#263238"/>
<path d="M204.499 121.418L203.773 126.315L206.314 125.997L204.499 121.418Z" fill="#F28F8F"/>
<path d="M230.99 177.027L215.341 167.388C215.204 167.304 215.048 167.26 214.891 167.26C214.733 167.26 214.577 167.304 214.44 167.388L186.998 184.294L203.09 194.243L230.99 177.027Z" fill="#37474F"/>
<path d="M202.945 192.794L194.506 187.603L219.182 172.401L227.664 177.569L202.945 192.794Z" fill="#263238"/>
<path d="M198.798 178.352L198.958 178.445L203.09 180.994L210.446 176.461L210.599 176.368L206.307 173.726L198.798 178.352Z" fill="#263238"/>
<path d="M198.958 178.445L203.09 180.994L210.446 176.461L206.307 173.912L198.958 178.445Z" fill="#263238"/>
<path d="M186.998 184.294V184.69C186.996 184.969 187.062 185.245 187.189 185.489C187.316 185.733 187.501 185.938 187.724 186.084L202.306 195.064C202.535 195.207 202.796 195.281 203.061 195.281C203.326 195.281 203.587 195.207 203.816 195.064L230.206 178.793C230.429 178.647 230.613 178.442 230.74 178.197C230.867 177.953 230.933 177.678 230.932 177.399V177.003L203.09 194.243L186.998 184.294Z" fill="#263238"/>
<path d="M203.09 194.243V195.312C203.346 195.309 203.596 195.235 203.816 195.095L230.206 178.824C230.429 178.678 230.613 178.473 230.74 178.228C230.867 177.984 230.933 177.709 230.932 177.43V177.034L203.09 194.243Z" fill="#263238"/>
<path d="M203.518 194.452C203.768 194.554 204.036 194.595 204.302 194.572C204.569 194.549 204.827 194.463 205.058 194.321L231.331 178.135C231.559 177.995 231.755 177.803 231.904 177.573C232.054 177.342 232.153 177.079 232.195 176.802L235.1 158.508C235.107 158.403 235.107 158.297 235.1 158.191C235.098 157.682 234.908 157.194 234.57 156.835L207.266 173.656C207.098 173.76 206.953 173.902 206.843 174.072C206.732 174.242 206.658 174.436 206.626 174.64L203.518 194.452Z" fill="#263238"/>
<path d="M203.09 194.243L203.272 194.352C203.352 194.4 203.434 194.444 203.519 194.483L206.627 174.671C206.658 174.467 206.732 174.273 206.843 174.103C206.953 173.933 207.098 173.791 207.266 173.687L234.57 156.866C234.458 156.755 234.337 156.656 234.207 156.571L206.852 173.393C206.683 173.496 206.538 173.638 206.426 173.808C206.314 173.978 206.239 174.172 206.205 174.377L203.09 194.243Z" fill="#455A64"/>
<path d="M218.311 177.554C218.724 176.024 219.673 174.723 220.961 173.92C222.232 173.145 223.103 173.493 222.915 174.694C222.501 176.224 221.552 177.525 220.264 178.328C218.993 179.142 218.122 178.747 218.311 177.554Z" fill="#37474F"/>
<path d="M183.97 162.638C183.97 162.638 188.683 182.009 190.672 183.396C192.662 184.783 196.366 185.798 198.137 186.495C199.909 187.192 200.715 188.145 200.41 188.409C200.105 188.672 197.549 188.959 196.663 189.292C195.777 189.625 196.925 191.152 198.885 192.771C200.846 194.39 202.516 194.243 202.298 195.32C202.081 196.397 197.709 197.474 194.02 195.165C190.331 192.856 189.213 189.741 187.012 187.099C184.812 184.457 179.787 173.478 178.022 168.674C178.022 168.674 178.189 159.748 180.927 160.314C183.665 160.879 183.97 162.638 183.97 162.638Z" fill="#FFA8A7"/>
<path d="M206.394 201.891C206.728 202.751 207.883 205.122 210.453 204.99L216.771 198.683L206.394 201.891Z" fill="#283618"/>
<path opacity="0.1" d="M206.394 201.891C206.728 202.751 207.883 205.122 210.453 204.99L216.771 198.683L206.394 201.891Z" fill="black"/>
<path d="M208.304 212.986C208.243 210.957 208.556 208.935 209.226 207.035C208.922 207.262 208.571 207.407 208.203 207.458C207.836 207.509 207.462 207.465 207.113 207.33C205 206.656 204.47 203.51 204.804 202.828C204.499 203.115 204.179 203.386 203.867 203.665C202.866 204.382 202.153 205.474 201.87 206.725C201.725 207.709 202.153 208.678 202.364 209.654C202.77 211.514 202.364 213.451 202.298 215.357C202.313 216.189 202.488 217.008 202.811 217.765C203.135 218.522 203.6 219.2 204.179 219.758C204.775 220.377 205.416 220.945 206.096 221.455C206.344 221.752 206.672 221.96 207.035 222.049C207.398 222.139 207.778 222.107 208.123 221.956C208.468 221.806 208.761 221.545 208.961 221.209C209.161 220.874 209.259 220.48 209.241 220.083C208.965 217.666 208.435 215.504 208.304 212.986Z" fill="#263238"/>
<path d="M210.7 204.587C210.504 204.982 210.33 205.362 210.177 205.741C210.359 205.369 210.533 204.982 210.7 204.587Z" fill="#37474F"/>
</svg>
