<svg width="176" height="182" viewBox="0 0 176 182" fill="none" xmlns="http://www.w3.org/2000/svg">
<path d="M21.8457 124.405H10.863C10.7968 124.405 10.7333 124.38 10.6865 124.334C10.6397 124.288 10.6134 124.226 10.6134 124.161V107.718H7.35351C7.30661 107.719 7.26049 107.706 7.22066 107.682C7.18083 107.658 7.14897 107.623 7.12887 107.581C7.10462 107.542 7.0918 107.498 7.0918 107.452C7.0918 107.406 7.10462 107.362 7.12887 107.323L16.1147 96.2368C16.1386 96.2091 16.1684 96.1868 16.202 96.1715C16.2357 96.1562 16.2723 96.1483 16.3094 96.1483C16.3465 96.1483 16.3831 96.1562 16.4168 96.1715C16.4504 96.1868 16.4802 96.2091 16.5041 96.2368L25.4899 107.323C25.519 107.359 25.5371 107.402 25.5422 107.447C25.5473 107.493 25.5393 107.539 25.519 107.58C25.4987 107.621 25.467 107.656 25.4274 107.68C25.3878 107.705 25.342 107.718 25.2952 107.718H22.0204V124.161C22.0229 124.215 22.0072 124.268 21.9755 124.312C21.9439 124.357 21.8983 124.389 21.8457 124.405ZM11.1226 123.917H21.6061V107.474C21.6061 107.409 21.6324 107.347 21.6792 107.301C21.726 107.256 21.7895 107.23 21.8557 107.23H24.851L16.3643 96.7833L7.87769 107.23H10.873C10.9392 107.23 11.0027 107.256 11.0495 107.301C11.0963 107.347 11.1226 107.409 11.1226 107.474V123.917Z" fill="#FFE8D6"/>
<path d="M132.092 124.405H121.11C121.043 124.405 120.98 124.38 120.933 124.334C120.886 124.288 120.86 124.226 120.86 124.161V107.718H117.585C117.538 107.718 117.493 107.705 117.453 107.68C117.413 107.656 117.382 107.621 117.361 107.58C117.341 107.539 117.333 107.493 117.338 107.447C117.343 107.402 117.361 107.359 117.39 107.323L126.401 96.2368C126.425 96.2091 126.455 96.1868 126.489 96.1715C126.522 96.1562 126.559 96.1483 126.596 96.1483C126.633 96.1483 126.67 96.1562 126.703 96.1715C126.737 96.1868 126.767 96.2091 126.791 96.2368L135.801 107.323C135.83 107.359 135.849 107.402 135.854 107.447C135.859 107.493 135.851 107.539 135.83 107.58C135.81 107.621 135.778 107.656 135.739 107.68C135.699 107.705 135.654 107.718 135.607 107.718H132.332V124.161C132.332 124.224 132.307 124.285 132.262 124.33C132.218 124.376 132.157 124.403 132.092 124.405ZM121.369 123.917H131.853V107.474C131.853 107.409 131.879 107.347 131.926 107.301C131.973 107.256 132.036 107.23 132.102 107.23H135.098L126.611 96.7833L118.124 107.23H121.12C121.186 107.23 121.249 107.256 121.296 107.301C121.343 107.347 121.369 107.409 121.369 107.474V123.917Z" fill="#FFE8D6"/>
<path d="M159.908 151.705H148.925C148.859 151.705 148.796 151.68 148.749 151.634C148.702 151.588 148.676 151.526 148.676 151.461V135.018H145.416C145.369 135.018 145.323 135.005 145.284 134.98C145.244 134.956 145.212 134.921 145.192 134.88C145.172 134.839 145.164 134.793 145.169 134.747C145.174 134.702 145.192 134.659 145.221 134.623L154.207 123.542C154.231 123.514 154.261 123.492 154.294 123.476C154.328 123.461 154.365 123.453 154.402 123.453C154.439 123.453 154.476 123.461 154.509 123.476C154.543 123.492 154.573 123.514 154.596 123.542L163.582 134.623C163.611 134.659 163.629 134.702 163.635 134.747C163.64 134.793 163.632 134.839 163.611 134.88C163.591 134.921 163.559 134.956 163.52 134.98C163.48 135.005 163.434 135.018 163.388 135.018H160.113V151.461C160.114 151.519 160.094 151.575 160.056 151.62C160.019 151.665 159.966 151.695 159.908 151.705ZM149.19 151.217H159.673V134.774C159.673 134.709 159.7 134.647 159.747 134.601C159.793 134.556 159.857 134.53 159.923 134.53H162.918L154.432 124.083L145.945 134.53H148.94C149.006 134.531 149.069 134.557 149.115 134.603C149.162 134.648 149.189 134.71 149.19 134.774V151.217Z" fill="#FFE8D6"/>
<path d="M148.511 87.9419H137.528C137.462 87.9419 137.399 87.9162 137.352 87.8705C137.305 87.8247 137.279 87.7627 137.279 87.698V71.2546H134.004C133.957 71.2548 133.91 71.2416 133.87 71.2164C133.83 71.1913 133.799 71.1554 133.779 71.1131C133.759 71.0714 133.752 71.0253 133.757 70.9796C133.762 70.934 133.78 70.8907 133.809 70.8544L142.795 59.7734C142.82 59.7456 142.85 59.7233 142.884 59.708C142.918 59.6927 142.955 59.6847 142.992 59.6847C143.03 59.6847 143.067 59.6927 143.101 59.708C143.135 59.7233 143.165 59.7456 143.19 59.7734L152.175 70.8544C152.204 70.8908 152.222 70.9342 152.226 70.9797C152.231 71.0253 152.223 71.0713 152.203 71.1127C152.183 71.1541 152.152 71.1892 152.112 71.2142C152.073 71.2393 152.028 71.2532 151.981 71.2546H148.706V87.698C148.707 87.7544 148.689 87.8095 148.653 87.854C148.618 87.8985 148.567 87.9295 148.511 87.9419ZM137.793 87.454H148.277V71.0106C148.277 70.9459 148.303 70.8838 148.35 70.8381C148.396 70.7923 148.46 70.7666 148.526 70.7666H151.521L143.035 60.315L134.548 70.7666H137.543C137.61 70.7666 137.673 70.7923 137.72 70.8381C137.767 70.8838 137.793 70.9459 137.793 71.0106V87.454Z" fill="#FFE8D6"/>
<path d="M44.7544 89.8595H33.7717C33.7055 89.8595 33.642 89.8338 33.5952 89.7881C33.5484 89.7423 33.5221 89.6803 33.5221 89.6156V73.1721H30.2523C30.205 73.1729 30.1586 73.1605 30.1183 73.1364C30.078 73.1123 30.0455 73.0776 30.0246 73.0362C30.0037 72.9948 29.9952 72.9485 30.0002 72.9026C30.0051 72.8567 30.0233 72.8131 30.0526 72.7769L39.0634 61.691C39.0873 61.6633 39.1171 61.641 39.1507 61.6257C39.1843 61.6105 39.221 61.6025 39.2581 61.6025C39.2952 61.6025 39.3318 61.6105 39.3654 61.6257C39.3991 61.641 39.4289 61.6633 39.4528 61.691L48.4636 72.7769C48.4926 72.8128 48.5107 72.8559 48.5158 72.9014C48.521 72.9469 48.5129 72.9928 48.4926 73.034C48.4723 73.0752 48.4406 73.11 48.401 73.1344C48.3615 73.1589 48.3157 73.1719 48.2689 73.1721H44.994V89.6156C44.9941 89.6786 44.9692 89.7392 44.9245 89.7847C44.8798 89.8302 44.8189 89.857 44.7544 89.8595ZM34.0313 89.3716H44.5148V72.9282C44.5148 72.8635 44.5411 72.8014 44.5879 72.7557C44.6347 72.7099 44.6982 72.6842 44.7644 72.6842H47.7597L39.273 62.2375L30.7864 72.6842H33.7817C33.8479 72.6842 33.9114 72.7099 33.9582 72.7557C34.005 72.8014 34.0313 72.8635 34.0313 72.9282V89.3716Z" fill="#FFE8D6"/>
<path d="M62.2273 151.705H51.2446C51.1784 151.705 51.1149 151.68 51.0681 151.634C51.0213 151.588 50.995 151.526 50.995 151.461V135.018H47.7201C47.6734 135.018 47.6276 135.005 47.588 134.98C47.5484 134.956 47.5167 134.921 47.4964 134.88C47.4761 134.839 47.4681 134.793 47.4732 134.747C47.4783 134.702 47.4964 134.659 47.5255 134.623L56.5363 123.542C56.5602 123.514 56.59 123.492 56.6236 123.476C56.6572 123.461 56.6939 123.453 56.7309 123.453C56.768 123.453 56.8047 123.461 56.8383 123.476C56.8719 123.492 56.9017 123.514 56.9256 123.542L65.9364 134.623C65.9657 134.659 65.9839 134.702 65.9889 134.748C65.9938 134.794 65.9853 134.841 65.9644 134.882C65.9435 134.923 65.911 134.958 65.8707 134.982C65.8304 135.006 65.784 135.019 65.7368 135.018H62.4669V151.461C62.467 151.524 62.442 151.585 62.3974 151.63C62.3527 151.676 62.2917 151.703 62.2273 151.705ZM51.5042 151.217H61.9877V134.774C61.9877 134.709 62.014 134.647 62.0608 134.601C62.1076 134.556 62.1711 134.53 62.2373 134.53H65.2326L56.7459 124.083L48.2593 134.53H51.2546C51.3208 134.53 51.3843 134.556 51.4311 134.601C51.4779 134.647 51.5042 134.709 51.5042 134.774V151.217Z" fill="#FFE8D6"/>
<path d="M89.1041 181.518C117.226 181.518 140.024 178.934 140.024 175.746C140.024 172.558 117.226 169.974 89.1041 169.974C60.9819 169.974 38.1843 172.558 38.1843 175.746C38.1843 178.934 60.9819 181.518 89.1041 181.518Z" fill="#FFE8D6"/>
<path opacity="0.5" d="M89.1041 181.518C117.226 181.518 140.024 178.934 140.024 175.746C140.024 172.558 117.226 169.974 89.1041 169.974C60.9819 169.974 38.1843 172.558 38.1843 175.746C38.1843 178.934 60.9819 181.518 89.1041 181.518Z" fill="white"/>
<path d="M121.688 37.2113C122.371 33.6559 121.964 29.9825 120.52 26.6518C119.076 23.3211 116.657 20.4813 113.568 18.4886C110.479 16.4959 106.857 15.439 103.156 15.4504C99.4546 15.4618 95.8393 16.541 92.7631 18.5527C90.5289 13.2444 86.4791 8.85851 81.305 6.14363C76.1308 3.42875 70.153 2.55318 64.3919 3.66635C58.6308 4.77952 53.4435 7.81244 49.7155 12.2474C45.9874 16.6824 43.9497 22.2446 43.9501 27.9845C43.9501 28.2919 43.9501 28.5944 43.9501 28.8969C40.3079 29.9115 37.1333 32.1191 34.9587 35.1497C32.7841 38.1802 31.7416 41.8494 32.0062 45.542C32.2707 49.2346 33.826 52.726 36.4115 55.4308C38.9969 58.1357 42.4552 59.8894 46.2065 60.398V60.5688H120.879C123.913 60.4659 126.793 59.2413 128.939 57.1425C131.085 55.0436 132.335 52.2269 132.438 49.2615C132.541 46.2962 131.488 43.4033 129.492 41.1674C127.497 38.9315 124.707 37.5193 121.688 37.2162V37.2113Z" fill="#263238" stroke="#263238" stroke-linecap="round" stroke-linejoin="round"/>
<path d="M121.688 35.0156C122.371 31.4602 121.965 27.7868 120.52 24.4561C119.076 21.1254 116.658 18.2856 113.568 16.2929C110.479 14.3002 106.857 13.2433 103.156 13.2547C99.4549 13.2661 95.8395 14.3453 92.7634 16.357C90.5293 11.0491 86.48 6.66343 81.3063 3.9485C76.1326 1.23357 70.1554 0.35763 64.3946 1.47017C58.6338 2.58271 53.4465 5.61476 49.7181 10.0489C45.9896 14.483 43.9511 20.0444 43.9503 25.7839C43.9503 26.0913 43.9503 26.3938 43.9503 26.6963C40.3081 27.7109 37.1336 29.9185 34.959 32.9491C32.7844 35.9796 31.7419 39.6488 32.0064 43.3414C32.2709 47.034 33.8263 50.5254 36.4117 53.2302C38.9972 55.9351 42.4555 57.6888 46.2067 58.1974V58.3682H120.879C123.913 58.2653 126.794 57.0408 128.939 54.9419C131.085 52.843 132.335 50.0263 132.438 47.0609C132.541 44.0956 131.488 41.2027 129.493 38.9668C127.497 36.7309 124.708 35.3187 121.688 35.0156Z" fill="#FFE8D6" stroke="#263238" stroke-linecap="round" stroke-linejoin="round"/>
<path d="M95.7936 100.423L92.6535 102.034C92.6535 102.034 89.2139 103.497 86.9675 104.663C84.721 105.83 73.6534 114.168 73.6534 114.168L71.412 114.315L70.0641 115.193C70.0641 115.193 67.8176 115.632 67.8176 116.071C67.8176 116.511 68.2669 116.652 68.7162 116.652C69.3922 116.485 70.0457 116.241 70.6631 115.925C70.6631 115.925 69.1405 118.101 69.7396 118.101C70.607 118.189 71.4687 118.324 72.3205 118.506C73.3114 118.326 74.3112 118.195 75.3158 118.116C76.0646 118.116 77.8568 114.168 77.8568 114.168C77.8568 114.168 90.7216 109.196 92.369 108.025C94.0164 106.854 98.7988 103.932 98.7988 103.932L95.7936 100.423Z" fill="white" stroke="#263238" stroke-linecap="round" stroke-linejoin="round"/>
<path d="M107.87 88.4103L93.8467 100.862L97.8903 105.542L105.668 102.619L108.359 88.5811L107.87 88.4103Z" fill="#FFE8D6" stroke="#263238" stroke-linecap="round" stroke-linejoin="round"/>
<path d="M95.7187 99.2035L93.8467 100.862L97.8903 105.542L100.302 104.634L95.7187 99.2035Z" fill="#263238" stroke="#263238" stroke-linecap="round" stroke-linejoin="round"/>
<path d="M132.346 166.329C132.346 166.329 136.799 170.857 137.253 173.077C137.707 175.297 136.619 177.254 134.802 176.717C132.985 176.18 131.347 170.681 130.893 169.705C130.439 168.729 129.895 167.661 129.895 167.661C129.895 167.661 131.258 165.885 132.346 166.329Z" fill="#FFE8D6" stroke="#263238" stroke-linecap="round" stroke-linejoin="round"/>
<path d="M137.293 173.316C137.623 175.434 136.549 177.219 134.797 176.731C134.163 176.551 133.554 175.756 133.01 174.78C134.198 172.901 136.11 173.004 137.293 173.316Z" fill="white" stroke="#263238" stroke-linecap="round" stroke-linejoin="round"/>
<path d="M132.391 173.496C133.389 174.829 134.657 176.258 135.616 176.009C136.574 175.76 137.078 173.999 137.253 173.082C137.703 175.297 136.614 177.239 134.802 176.707C133.913 176.458 133.075 175.019 132.391 173.496Z" fill="white" stroke="#263238" stroke-linecap="round" stroke-linejoin="round"/>
<path d="M131.438 168.817C131.438 168.817 133.434 167.749 133.529 168.105C133.624 168.461 131.622 169.437 131.348 169.437C131.073 169.437 130.893 169.349 131.438 168.817Z" fill="white" stroke="#263238" stroke-width="0.5" stroke-linecap="round" stroke-linejoin="round"/>
<path d="M131.892 169.437C131.892 169.437 133.889 168.373 133.983 168.729C134.078 169.086 132.076 170.061 131.802 170.061C131.527 170.061 131.348 169.974 131.892 169.437Z" fill="white" stroke="#263238" stroke-width="0.5" stroke-linecap="round" stroke-linejoin="round"/>
<path d="M132.346 170.061C132.346 170.061 134.343 168.993 134.438 169.349C134.533 169.705 132.531 170.681 132.256 170.681C131.982 170.681 131.802 170.593 132.346 170.061Z" fill="white" stroke="#263238" stroke-width="0.5" stroke-linecap="round" stroke-linejoin="round"/>
<path d="M132.8 170.681C132.8 170.681 134.797 169.617 134.892 169.969C134.987 170.32 132.985 171.301 132.71 171.301C132.436 171.301 132.256 171.213 132.8 170.681Z" fill="white" stroke="#263238" stroke-width="0.5" stroke-linecap="round" stroke-linejoin="round"/>
<path d="M96.4674 170.403C96.4674 170.403 98.2046 172.769 98.3594 174.111C98.5141 175.453 97.361 175.487 95.8933 175.336C94.4256 175.185 92.6733 176.244 90.6066 176.19C88.5399 176.136 86.1486 175.253 87.2968 174.292C88.445 173.331 91.4403 172.54 92.0893 171.989C92.4766 171.657 92.8402 171.3 93.1776 170.92L96.4674 170.403Z" fill="#FFE8D6" stroke="#263238" stroke-linecap="round" stroke-linejoin="round"/>
<path d="M87.2972 174.292C87.7008 173.982 88.1438 173.724 88.6152 173.526C89.143 173.802 89.6075 174.181 89.98 174.639C90.3526 175.097 90.6254 175.625 90.7817 176.19H90.602C88.5353 176.136 86.1491 175.253 87.2972 174.292Z" fill="white" stroke="#263238" stroke-linecap="round" stroke-linejoin="round"/>
<path d="M92.2791 171.676C92.2791 171.676 94.4107 172.765 93.8716 172.979C93.3324 173.194 91.715 171.974 92.2791 171.676Z" fill="white" stroke="#263238" stroke-width="0.5" stroke-linecap="round" stroke-linejoin="round"/>
<path d="M91.4505 171.896C91.4505 171.896 93.5821 172.984 93.043 173.199C92.5038 173.413 90.8864 172.194 91.4505 171.896Z" fill="white" stroke="#263238" stroke-width="0.5" stroke-linecap="round" stroke-linejoin="round"/>
<path d="M90.9708 172.218C90.9708 172.218 93.1024 173.306 92.5632 173.521C92.0241 173.736 90.4066 172.516 90.9708 172.218Z" fill="white" stroke="#263238" stroke-width="0.5" stroke-linecap="round" stroke-linejoin="round"/>
<path d="M90.1024 172.608C90.1024 172.608 92.234 173.697 91.6948 173.911C91.1557 174.126 89.5283 172.901 90.1024 172.608Z" fill="white" stroke="#263238" stroke-width="0.5" stroke-linecap="round" stroke-linejoin="round"/>
<path d="M87.0577 174.589C88.5519 175.449 90.3299 175.706 92.0149 175.307C93.5793 174.971 95.1684 174.755 96.7674 174.663C97.3114 174.647 97.8506 174.559 98.3699 174.399C98.3299 175.458 97.2516 175.477 95.8738 175.336C94.4061 175.18 92.6539 176.244 90.5871 176.19C88.75 176.141 86.6533 175.429 87.0577 174.589Z" fill="white" stroke="#263238" stroke-linecap="round" stroke-linejoin="round"/>
<path d="M118.298 118.252C118.298 118.252 117.25 132.52 117.884 135.979C118.518 139.439 120.08 149.739 120.08 149.739C120.08 149.739 122.447 151.427 124.808 155.155C127.169 158.883 132.346 166.343 132.346 166.343C132.346 166.343 132.531 167.675 130.893 168.119C130.893 168.119 130.075 168.476 129.62 168.119C129.166 167.763 113.646 153.735 111.813 150.807C109.981 147.88 107.545 129.865 107.545 129.865L105.184 129.421L95.1997 148.07L96.9369 170.74C96.9369 170.74 97.0717 171.52 95.9385 171.837C94.8053 172.155 93.8917 172.267 93.2128 171.696C92.5339 171.125 87.2771 146.299 87.7214 145.411C88.1657 144.523 98.2399 120.116 98.2399 120.116L99.0536 118.077C99.0536 118.077 108.594 119.14 112.862 118.34C117.13 117.54 117.939 116.906 118.298 118.252Z" fill="#263238" stroke="#263238" stroke-linecap="round" stroke-linejoin="round"/>
<path d="M105.184 129.407L100.002 127.899" stroke="white" stroke-linecap="round" stroke-linejoin="round"/>
<path d="M104.634 129.675L97.5503 128.875" stroke="white" stroke-linecap="round" stroke-linejoin="round"/>
<path d="M116.67 121.014C116.67 121.014 112.836 123.405 116.67 125.001" stroke="white" stroke-linecap="round" stroke-linejoin="round"/>
<path d="M105.818 121.99L105.229 124.293L103.651 125.835L105.618 127.562" stroke="white" stroke-linecap="round" stroke-linejoin="round"/>
<path d="M128.277 94.6949C124.782 91.9235 120.444 88.5762 120.444 88.5762C120.444 88.5762 111.244 88.3713 107.869 88.4103L103.126 103.205C103.126 103.205 98.7683 117.94 98.948 118.565C99.1278 119.189 102.223 120.604 109.127 121.405C116.031 122.205 118.937 119.365 119.111 118.477C119.187 117.672 119.126 116.861 118.932 116.076L121.293 111.992L129.106 99.4328C129.577 98.6786 129.753 97.7831 129.6 96.912C129.448 96.0409 128.978 95.2533 128.277 94.6949Z" fill="#FFE8D6" stroke="#263238" stroke-linecap="round" stroke-linejoin="round"/>
<path d="M125.547 92.5334C122.871 90.4353 120.46 88.5762 120.46 88.5762C120.46 88.5762 117.404 88.5079 114.175 88.4591C113.356 90.284 111.943 94.0118 113.106 95.8562C114.524 98.13 119.212 98.8082 125.547 92.5334Z" fill="#263238" stroke="#263238" stroke-linecap="round" stroke-linejoin="round"/>
<path d="M121.388 73.3624C121.388 73.3624 118.757 74.0748 117.664 75.6704C116.57 77.2659 113.395 86.5952 113.485 87.3808C113.575 88.1664 117.664 87.3808 117.664 87.3808C117.664 87.3808 114.848 93.1531 114.848 94.1289C114.848 95.1048 116.121 95.6415 117.754 95.2853C119.386 94.9291 124.962 85.5608 124.962 85.5608C124.962 85.5608 126.615 87.4345 127.658 86.7904C128.856 86.0536 128.477 84.5703 127.568 84.5703C126.66 84.5703 130.109 80.9303 128.931 78.5345C127.753 76.1388 122.481 72.5671 121.388 73.3624Z" fill="white" stroke="#263238" stroke-linecap="round" stroke-linejoin="round"/>
<path d="M120.39 70.5275C120.39 70.5275 115.303 70.5275 115.028 72.9233C114.754 75.3191 117.394 76.3876 120.3 75.9436C123.205 75.4996 125.841 75.6753 126.206 76.1193C126.57 76.5633 122.661 77.4513 123.57 78.071C124.098 78.4417 124.737 78.6305 125.387 78.6077C125.387 78.6077 124.114 78.9591 124.204 79.8471C124.294 80.7351 125.087 84.6581 125.701 84.6581C126.315 84.6581 127.549 84.5801 127.549 84.5801C128.699 84.0146 129.743 83.2641 130.639 82.36C132.001 80.9401 132.361 77.9198 130.639 76.1486C128.916 74.3774 127.549 72.6549 126.186 71.235C124.823 69.8152 123.55 68.3074 120.824 67.9512C118.098 67.5951 116.666 68.6588 120.39 70.5275Z" fill="#263238" stroke="#263238" stroke-linecap="round" stroke-linejoin="round"/>
<path d="M130.998 79.7056C131.092 80.2258 131.11 80.7564 131.053 81.2816" stroke="white" stroke-linecap="round" stroke-linejoin="round"/>
<path d="M121.663 73.3283C121.663 73.3283 116.086 73.8601 118.168 74.8994C120.25 75.9387 123.5 73.9919 127.558 75.563C128.243 75.8047 128.868 76.1841 129.394 76.6766C129.919 77.1691 130.333 77.7638 130.608 78.4223" stroke="white" stroke-linecap="round" stroke-linejoin="round"/>
<path d="M125.048 77.466C125.048 77.466 128.857 79.286 129.361 81.9306" stroke="white" stroke-linecap="round" stroke-linejoin="round"/>
<path d="M117.664 87.3954C117.664 87.3954 122.027 87.132 123.205 86.1561" stroke="#263238" stroke-linecap="round" stroke-linejoin="round"/>
<path d="M116.301 83.8433C116.301 83.8433 119.481 84.7313 120.39 82.8674" stroke="#263238" stroke-linecap="round" stroke-linejoin="round"/>
<path d="M119.845 82.5112L121.208 83.0479" stroke="#263238" stroke-linecap="round" stroke-linejoin="round"/>
<path d="M117.299 79.7593C117.299 79.7593 114.484 80.1155 114.484 80.5595C114.484 81.0035 116.301 82.2477 116.301 82.2477" fill="white"/>
<path d="M117.299 79.7593C117.299 79.7593 114.484 80.1155 114.484 80.5595C114.484 81.0035 116.301 82.2477 116.301 82.2477" stroke="#263238" stroke-linecap="round" stroke-linejoin="round"/>
<path d="M117.659 78.9054C117.529 79.2908 117.265 79.5494 117.065 79.486C116.865 79.4226 116.816 79.0615 116.95 78.676C117.085 78.2906 117.345 78.032 117.544 78.0954C117.744 78.1588 117.794 78.5248 117.659 78.9054Z" fill="#263238"/>
<path d="M120.055 80.091C119.921 80.4765 119.656 80.7351 119.461 80.6717C119.267 80.6082 119.212 80.2423 119.341 79.8617C119.471 79.4811 119.741 79.2176 119.936 79.2811C120.13 79.3445 120.18 79.7056 120.055 80.091Z" fill="#263238"/>
<path d="M120.18 77.5684C120.18 77.5684 121.558 77.6904 121.428 79.5202L120.18 77.5684Z" fill="#263238" stroke="#263238" stroke-linecap="round" stroke-linejoin="round"/>
<path d="M118.932 76.7145C118.932 76.7145 118.178 75.7387 117.18 77.0805L118.932 76.7145Z" fill="#263238" stroke="#263238" stroke-linecap="round" stroke-linejoin="round"/>
<path d="M93.8615 44.2376L80.7122 28.0625L67.5679 44.2376H72.7098V68.5904H88.7196V44.2376H93.8615Z" fill="#263238" stroke="#263238" stroke-linecap="round" stroke-linejoin="round"/>
<path d="M93.8615 43.1885L80.7122 27.0135L67.5679 43.1885H72.7098V67.5414H88.7196V43.1885H93.8615Z" fill="white" stroke="#263238" stroke-linecap="round" stroke-linejoin="round"/>
<path d="M106.357 64.7943H52.8862V117.057H106.357V64.7943Z" fill="white" stroke="#263238" stroke-linecap="round" stroke-linejoin="round"/>
<path d="M103.871 67.2242H55.3723V114.627H103.871V67.2242Z" fill="#263238" stroke="#263238" stroke-linecap="round" stroke-linejoin="round"/>
<path d="M92.6236 83.1846L81.3115 94.7389L72.5053 92.3285C72.0714 92.2103 71.6158 92.1892 71.1724 92.267C70.729 92.3447 70.3092 92.5191 69.9444 92.7774L55.3723 103.126V114.647H103.871V90.2499L96.9318 83.1797C96.6522 82.8974 96.3172 82.6731 95.947 82.52C95.5767 82.3669 95.1787 82.2883 94.7767 82.2887C94.3747 82.2892 93.9769 82.3688 93.607 82.5227C93.2371 82.6766 92.9026 82.9017 92.6236 83.1846Z" fill="white" stroke="#263238" stroke-linecap="round" stroke-linejoin="round"/>
<path d="M79.0154 82.2481C80.2992 79.1918 78.8049 75.6971 75.678 74.4424C72.5511 73.1877 68.9755 74.6481 67.6918 77.7044C66.4081 80.7607 67.9023 84.2554 71.0292 85.5102C74.1562 86.7649 77.7317 85.3044 79.0154 82.2481Z" fill="white" stroke="#263238" stroke-linecap="round" stroke-linejoin="round"/>
<path d="M121.598 96.9541L108.234 110.382L87.8658 115.866C87.8658 115.866 86.0487 113.802 84.7407 113.788C83.4328 113.773 79.2194 115.252 79.2194 115.252C79.2194 115.252 78.6853 116.53 79.7186 116.54C80.7811 116.467 81.8351 116.303 82.8687 116.052L77.0928 117.028C77.1624 117.458 77.3857 117.849 77.723 118.133C78.0603 118.417 78.4897 118.575 78.9349 118.579H81.5358L85.9838 119.131L90.1921 117.886C90.1921 117.886 110.131 115.764 111.184 115.515C112.237 115.266 129.156 101.072 129.156 101.072C129.156 101.072 131.068 99.4279 130.339 97.5201C129.61 95.6123 125.881 94.2607 125.881 94.2607" fill="white"/>
<path d="M121.598 96.9541L108.234 110.382L87.8658 115.866C87.8658 115.866 86.0487 113.802 84.7407 113.788C83.4328 113.773 79.2194 115.252 79.2194 115.252C79.2194 115.252 78.6853 116.53 79.7186 116.54C80.7811 116.467 81.8351 116.303 82.8687 116.052L77.0928 117.028C77.1624 117.458 77.3857 117.849 77.723 118.133C78.0603 118.417 78.4897 118.575 78.9349 118.579H81.5358L85.9838 119.131L90.1921 117.886C90.1921 117.886 110.131 115.764 111.184 115.515C112.237 115.266 129.156 101.072 129.156 101.072C129.156 101.072 131.068 99.4279 130.339 97.5201C129.61 95.6123 125.881 94.2607 125.881 94.2607" stroke="#263238" stroke-linecap="round" stroke-linejoin="round"/>
<path d="M119.187 98.3545L108.998 108.342L116.561 113.676L129.7 101.58C130.341 100.993 130.758 100.209 130.881 99.3587C131.003 98.5083 130.825 97.6426 130.374 96.9053L130.329 96.837C129.387 95.3765 128.054 94.1955 126.475 93.4214" fill="#FFE8D6"/>
<path d="M119.187 98.3545L108.998 108.342L116.561 113.676L129.7 101.58C130.341 100.993 130.758 100.209 130.881 99.3587C131.003 98.5083 130.825 97.6426 130.374 96.9053L130.329 96.837C129.387 95.3765 128.054 94.1955 126.475 93.4214" stroke="#263238" stroke-linecap="round" stroke-linejoin="round"/>
<path d="M116.581 113.676L118.358 112.036L110.755 106.62L108.998 108.342L116.581 113.676Z" fill="#263238" stroke="#263238" stroke-linecap="round" stroke-linejoin="round"/>
<path d="M67.8176 116.071L69.7396 118.101L71.6017 118.301L68.7112 115.881L67.8176 116.071Z" fill="white" stroke="#263238" stroke-linecap="round" stroke-linejoin="round"/>
<path d="M71.4316 116.071L73.3536 118.101L75.2107 118.301L72.3202 115.881L71.4316 116.071Z" fill="white" stroke="#263238" stroke-linecap="round" stroke-linejoin="round"/>
<path d="M71.6013 118.301L69.4297 115.579H70.7726L73.4583 118.301L72.3201 118.506L71.6013 118.301Z" fill="white" stroke="#263238" stroke-linecap="round" stroke-linejoin="round"/>
<path d="M67.0591 116.286L67.9876 117.999L69.7399 118.101L67.8179 116.071L67.0591 116.286Z" fill="white" stroke="#263238" stroke-linecap="round" stroke-linejoin="round"/>
</svg>
