<svg width="56" height="56" viewBox="0 0 56 56" fill="none" xmlns="http://www.w3.org/2000/svg">
<path d="M52.7895 15.5648C52.6462 15.294 52.4017 15.0909 52.1093 14.9998C51.8168 14.9086 51.5002 14.9368 51.2285 15.0783C50.9568 15.2197 50.7521 15.4629 50.659 15.7547C50.5659 16.0465 50.592 16.3633 50.7317 16.636C53.2213 21.3881 54.1234 26.8127 53.3058 32.1148C52.4883 37.417 49.994 42.3178 46.1885 46.0993C36.3615 55.9252 20.3703 55.9283 10.5392 46.0982C10.377 45.936 10.1703 45.8256 9.94524 45.7809C9.72022 45.7362 9.48699 45.7592 9.27506 45.8471C9.06314 45.935 8.88204 46.0837 8.75469 46.2746C8.62733 46.4654 8.55944 46.6897 8.55961 46.9191V53.5871C8.55961 53.8947 8.6818 54.1897 8.89929 54.4072C9.11678 54.6246 9.41177 54.7468 9.71935 54.7468C10.0269 54.7468 10.3219 54.6246 10.5394 54.4072C10.7569 54.1897 10.8791 53.8947 10.8791 53.5871V49.5383C15.7808 53.5669 21.9235 55.7791 28.2683 55.8005C34.6132 55.822 40.7707 53.6515 45.6995 49.656C50.6284 45.6606 54.0261 40.0855 55.318 33.8735C56.6099 27.6616 55.7167 21.1941 52.7895 15.5648Z" fill="black"/>
<path d="M10.5392 10.451C20.3692 0.622032 36.3605 0.623064 46.1884 10.45C46.3505 10.6124 46.5571 10.7231 46.7821 10.768C47.0072 10.8129 47.2404 10.79 47.4525 10.7022C47.6645 10.6144 47.8456 10.4657 47.973 10.2748C48.1004 10.084 48.1683 9.85959 48.168 9.63013V2.96216C48.168 2.65458 48.0458 2.35959 47.8283 2.1421C47.6108 1.9246 47.3158 1.80242 47.0083 1.80242C46.7007 1.80242 46.4057 1.9246 46.1882 2.1421C45.9707 2.35959 45.8485 2.65458 45.8485 2.96216V7.01099C35.0462 -1.88388 18.9952 -1.28546 8.89944 8.81027C4.74344 12.9394 2.01937 18.2912 1.12653 24.0813C0.23368 29.8713 1.21901 35.7952 3.93809 40.9844C4.08131 41.2552 4.32583 41.4583 4.61827 41.5495C4.91071 41.6406 5.22734 41.6124 5.49905 41.471C5.77077 41.3296 5.97551 41.0864 6.06859 40.7945C6.16167 40.5027 6.13554 40.1859 5.9959 39.9133C3.50624 35.1613 2.60411 29.7369 3.4217 24.4349C4.2393 19.1329 6.73364 14.2322 10.5392 10.451Z" fill="black"/>
<path d="M13.1764 28.1057V40.9307C13.1789 41.7691 13.513 42.5725 14.1059 43.1653C14.6987 43.7581 15.502 44.0923 16.3404 44.0948H40.3871C41.2255 44.0924 42.029 43.7583 42.6218 43.1654C43.2147 42.5725 43.5488 41.7691 43.5512 40.9307V28.1057C43.5488 27.2673 43.2146 26.4639 42.6218 25.871C42.0289 25.2782 41.2255 24.944 40.3871 24.9416H16.3404C15.5021 24.9441 14.6987 25.2783 14.1059 25.8711C13.513 26.464 13.1789 27.2673 13.1764 28.1057ZM36.8013 32.0402C37.2914 32.0402 37.7705 32.1855 38.178 32.4578C38.5856 32.7301 38.9032 33.1172 39.0908 33.57C39.2783 34.0228 39.3274 34.5211 39.2318 35.0018C39.1362 35.4825 38.9001 35.924 38.5536 36.2706C38.207 36.6172 37.7654 36.8532 37.2847 36.9488C36.804 37.0444 36.3058 36.9953 35.8529 36.8078C35.4001 36.6202 35.0131 36.3026 34.7408 35.8951C34.4685 35.4875 34.3232 35.0084 34.3232 34.5183C34.3238 33.8613 34.5851 33.2313 35.0497 32.7667C35.5143 32.3021 36.1442 32.0408 36.8013 32.0402ZM28.3638 32.0402C28.8539 32.0402 29.333 32.1855 29.7405 32.4578C30.1481 32.7301 30.4657 33.1172 30.6533 33.57C30.8408 34.0228 30.8899 34.5211 30.7943 35.0018C30.6987 35.4825 30.4626 35.924 30.1161 36.2706C29.7695 36.6172 29.3279 36.8532 28.8472 36.9488C28.3665 37.0444 27.8683 36.9953 27.4154 36.8078C26.9626 36.6202 26.5756 36.3026 26.3033 35.8951C26.031 35.4875 25.8857 35.0084 25.8857 34.5183C25.8863 33.8613 26.1476 33.2313 26.6122 32.7667C27.0768 32.3021 27.7067 32.0408 28.3638 32.0402ZM19.9263 32.0402C20.4164 32.0402 20.8955 32.1855 21.303 32.4578C21.7106 32.7301 22.0282 33.1172 22.2158 33.57C22.4033 34.0228 22.4524 34.5211 22.3568 35.0018C22.2612 35.4825 22.0251 35.924 21.6786 36.2706C21.332 36.6172 20.8904 36.8532 20.4097 36.9488C19.929 37.0444 19.4308 36.9953 18.9779 36.8078C18.5251 36.6202 18.1381 36.3026 17.8658 35.8951C17.5935 35.4875 17.4482 35.0084 17.4482 34.5183C17.4488 33.8613 17.7101 33.2313 18.1747 32.7667C18.6393 32.3021 19.2692 32.0408 19.9263 32.0402Z" fill="black"/>
<path d="M38.6357 22.6214V18.4024C38.6357 15.6781 37.5534 13.0654 35.6271 11.1391C33.7007 9.21272 31.0881 8.13051 28.3638 8.13051C25.6395 8.13051 23.0268 9.21272 21.1005 11.1391C19.1741 13.0654 18.0919 15.6781 18.0919 18.4024V22.6214H20.4114V18.4024C20.4114 16.2933 21.2493 14.2706 22.7406 12.7792C24.232 11.2878 26.2547 10.45 28.3638 10.45C30.4729 10.45 32.4957 11.2878 33.987 12.7792C35.4784 14.2706 36.3162 16.2933 36.3162 18.4024V22.6214H38.6357Z" fill="black"/>
</svg>
