<svg width="392" height="384" viewBox="0 0 392 384" fill="none" xmlns="http://www.w3.org/2000/svg">
<path d="M337.889 340.913C337.889 346.017 276.462 344.811 198.099 344.811C119.735 344.811 54.1113 346.017 54.1113 340.913C54.1113 335.808 119.735 334.623 198.099 334.623C276.462 334.623 337.889 335.808 337.889 340.913Z" fill="#4A563E"/>
<path d="M135 339.047L255.443 339.802C261.703 339.842 266.809 334.959 266.847 328.898L268.268 101.564C268.307 95.3415 263.128 90.267 256.704 90.2265L136.859 89.4757C130.434 89.4352 125.193 94.4445 125.154 100.667L123.734 328.001C123.695 334.063 128.74 339.009 135 339.047Z" fill="#4A563E"/>
<path d="M138.142 336.841L254.277 337.569C260.33 337.607 265.265 332.859 265.302 326.965L266.686 105.402C266.723 99.3525 261.719 94.4183 255.508 94.3778L139.951 93.654C133.74 93.615 128.674 98.4885 128.637 104.538L127.252 326.101C127.216 331.995 132.091 336.803 138.142 336.841Z" fill="#4A563E"/>
<mask id="mask0_317_831" style="mask-type:luminance" maskUnits="userSpaceOnUse" x="137" y="116" width="119" height="195">
<path d="M137.592 116.928H255.78V310.08H137.592V116.928Z" fill="white"/>
</mask>
<g mask="url(#mask0_317_831)">
<mask id="mask1_317_831" style="mask-type:luminance" maskUnits="userSpaceOnUse" x="137" y="117" width="119" height="193">
<path d="M254.393 309.898L148.784 309.237C148.785 309.237 148.785 309.237 148.785 309.235L254.393 309.89L254.398 309.103L254.393 309.898ZM137.719 301.807H137.718L137.724 300.949C137.724 300.949 137.724 300.949 137.724 300.949L137.719 301.807ZM254.547 285.358L138.805 129.805L137.841 282.517C137.84 282.514 137.839 282.514 137.838 282.514L138.873 117.079L255.594 117.809L254.545 285.356" fill="white"/>
</mask>
<g mask="url(#mask1_317_831)">
<mask id="mask2_317_831" style="mask-type:luminance" maskUnits="userSpaceOnUse" x="137" y="117" width="119" height="193">
<path d="M254.393 309.898L148.784 309.237C148.785 309.237 148.785 309.237 148.785 309.235L254.393 309.89L254.398 309.103L254.393 309.898ZM137.719 301.807H137.718L137.724 300.949C137.724 300.949 137.724 300.949 137.724 300.949L137.719 301.807ZM254.547 285.358L138.805 129.805L137.841 282.517C137.84 282.514 137.839 282.514 137.838 282.514L138.873 117.079L255.594 117.809L254.545 285.356" fill="white"/>
</mask>
<g mask="url(#mask2_317_831)">
<path d="M137.725 116.248L257.011 117.09L255.588 310.729L136.301 309.887L137.725 116.248Z" fill="url(#paint0_linear_317_831)"/>
</g>
</g>
</g>
<path d="M173.52 109.106L220.09 109.398L220.11 106.082L173.539 105.79L173.52 109.106Z" fill="white"/>
<path d="M183.409 330.058L210.93 330.23C212.08 330.238 213.017 329.335 213.025 328.216L213.046 324.801C213.052 323.681 212.127 322.767 210.976 322.759L183.456 322.587C182.306 322.581 181.368 323.483 181.361 324.603L181.34 328.017C181.333 329.138 182.259 330.052 183.409 330.058Z" fill="white"/>
<path d="M254.398 309.103L254.545 285.356L254.547 285.358L254.398 309.103Z" fill="#5785C3"/>
<mask id="mask3_317_831" style="mask-type:luminance" maskUnits="userSpaceOnUse" x="137" y="129" width="118" height="182">
<path d="M137.592 129.792H254.604V310.08H137.592V129.792Z" fill="white"/>
</mask>
<g mask="url(#mask3_317_831)">
<mask id="mask4_317_831" style="mask-type:luminance" maskUnits="userSpaceOnUse" x="137" y="129" width="118" height="181">
<path d="M254.392 309.89L148.784 309.236C150.27 307.436 143.456 289.302 138.599 283.35C138.362 283.06 138.108 282.782 137.84 282.517L138.804 129.806L254.547 285.358L254.398 309.103L254.392 309.89ZM138.128 301.807H137.719L137.724 300.949C137.866 301.242 138.001 301.529 138.128 301.807Z" fill="white"/>
</mask>
<g mask="url(#mask4_317_831)">
<mask id="mask5_317_831" style="mask-type:luminance" maskUnits="userSpaceOnUse" x="137" y="129" width="118" height="181">
<path d="M254.392 309.89L148.784 309.236C150.27 307.436 143.456 289.302 138.599 283.35C138.362 283.06 138.108 282.782 137.84 282.517L138.804 129.806L254.547 285.358L254.398 309.103L254.392 309.89ZM138.128 301.807H137.719L137.724 300.949C137.866 301.242 138.001 301.529 138.128 301.807Z" fill="white"/>
</mask>
<g mask="url(#mask5_317_831)">
<path d="M137.725 128.981L255.87 129.815L254.541 310.714L136.395 309.881L137.725 128.981Z" fill="url(#paint1_linear_317_831)"/>
</g>
</g>
</g>
<path d="M138.813 126.609L255.533 127.34L255.594 117.809L138.873 117.079L138.813 126.609Z" fill="#C0DDEE"/>
<path d="M227.955 282.244H164.043C161.253 282.244 158.99 280.026 158.99 277.294V266.575C158.99 263.843 161.253 261.625 164.043 261.625H227.955C230.747 261.625 233.009 263.843 233.009 266.575V277.294C233.009 280.026 230.747 282.244 227.955 282.244Z" fill="#4A563E"/>
<path d="M174.363 275.47C174.616 275.514 175.004 275.514 175.377 275.514C177.763 275.53 179.181 274.243 179.181 271.745C179.195 269.568 177.913 268.326 175.615 268.326C175.034 268.326 174.616 268.37 174.363 268.427V275.47ZM172.527 267.127C173.333 266.995 174.363 266.922 175.451 266.922C177.331 266.922 178.629 267.302 179.553 268.063C180.523 268.837 181.12 270.006 181.12 271.686C181.12 273.439 180.508 274.754 179.553 275.602C178.554 276.493 176.958 276.946 175.004 276.946C173.93 276.946 173.125 276.889 172.527 276.814V267.127Z" fill="white"/>
<path d="M188.337 272.475H184.548V275.368H188.784V276.844H182.713V266.995H188.561V268.471H184.548V271.014H188.337V272.475Z" fill="white"/>
<path d="M190.393 266.995H192.228V275.339H196.358V276.844H190.393V266.995Z" fill="white"/>
<path d="M203.368 272.475H199.579V275.368H203.815V276.844H197.744V266.995H203.591V268.471H199.579V271.014H203.368V272.475Z" fill="white"/>
<path d="M207.497 268.501H204.634V266.995H212.225V268.501H209.332V276.844H207.497V268.501Z" fill="white"/>
<path d="M219.024 272.475H215.236V275.368H219.474V276.844H213.401V266.995H219.25V268.471H215.236V271.014H219.024V272.475Z" fill="white"/>
<path d="M226.101 210.313C226.101 226.6 212.625 239.802 196 239.802C179.375 239.802 165.897 226.6 165.897 210.313C165.897 194.027 179.375 180.826 196 180.826C212.625 180.826 226.101 194.027 226.101 210.313Z" fill="#D72F18"/>
<path d="M187.298 193.734L192.496 200.859C193.852 202.71 194.982 204.422 196.188 206.271H196.413C197.621 204.284 198.827 202.571 200.032 200.792L205.155 193.734H212.311L199.881 209.766L212.687 226.892H205.155L199.804 219.425C198.373 217.508 197.168 215.657 195.887 213.671H195.736C194.531 215.657 193.25 217.438 191.894 219.425L186.619 226.892H179.312L192.27 209.972L179.915 193.734H187.298Z" fill="white"/>
<path d="M158.252 147.686L156.373 142.276C155.946 141.049 155.661 139.933 155.377 138.847H155.319C155.035 139.962 154.722 141.106 154.352 142.249L152.473 147.686H158.252ZM151.961 149.581L149.969 155.493H147.407L153.925 136.7H156.914L163.46 155.493H160.814L158.764 149.581H151.961Z" fill="#4A563E"/>
<path d="M175.669 154.992C175.014 155.326 173.562 155.773 171.712 155.773C167.556 155.773 164.851 153.013 164.851 148.886C164.851 144.73 167.755 141.719 172.252 141.719C173.732 141.719 175.042 142.082 175.725 142.416L175.156 144.313C174.558 143.977 173.619 143.671 172.252 143.671C169.093 143.671 167.385 145.957 167.385 148.773C167.385 151.897 169.434 153.82 172.167 153.82C173.591 153.82 174.53 153.458 175.241 153.151L175.669 154.992Z" fill="#4A563E"/>
<path d="M188.247 154.992C187.593 155.326 186.14 155.773 184.291 155.773C180.135 155.773 177.431 153.013 177.431 148.886C177.431 144.73 180.334 141.719 184.831 141.719C186.311 141.719 187.621 142.082 188.304 142.416L187.734 144.313C187.137 143.977 186.198 143.671 184.831 143.671C181.671 143.671 179.964 145.957 179.964 148.773C179.964 151.897 182.013 153.82 184.745 153.82C186.17 153.82 187.109 153.458 187.821 153.151L188.247 154.992Z" fill="#4A563E"/>
<path d="M192.542 148.773C192.542 151.73 194.279 153.961 196.727 153.961C199.118 153.961 200.911 151.756 200.911 148.717C200.911 146.431 199.744 143.531 196.784 143.531C193.823 143.531 192.542 146.208 192.542 148.773ZM203.473 148.635C203.473 153.625 199.944 155.8 196.613 155.8C192.884 155.8 190.009 153.124 190.009 148.858C190.009 144.34 193.026 141.69 196.84 141.69C200.798 141.69 203.473 144.507 203.473 148.635Z" fill="#4A563E"/>
<path d="M218.158 151.813C218.158 153.209 218.185 154.436 218.271 155.493H216.051L215.908 153.291H215.851C215.198 154.379 213.745 155.801 211.298 155.801C209.134 155.801 206.542 154.629 206.542 149.889V141.998H209.048V149.47C209.048 152.037 209.845 153.765 212.123 153.765C213.802 153.765 214.969 152.623 215.424 151.534C215.566 151.172 215.653 150.726 215.653 150.281V141.998H218.158V151.813Z" fill="#4A563E"/>
<path d="M222.309 145.651C222.309 144.255 222.28 143.113 222.195 141.997H224.416L224.557 144.229H224.614C225.298 142.946 226.892 141.69 229.169 141.69C231.077 141.69 234.038 142.806 234.038 147.435V155.493H231.531V147.713C231.531 145.54 230.706 143.727 228.344 143.727C226.694 143.727 225.412 144.87 224.984 146.236C224.871 146.544 224.815 146.961 224.815 147.379V155.493H222.309V145.651Z" fill="#4A563E"/>
<path d="M241.007 138.123V141.998H244.594V143.866H241.007V151.145C241.007 152.817 241.492 153.765 242.885 153.765C243.54 153.765 244.024 153.681 244.338 153.598L244.451 155.438C243.967 155.633 243.198 155.774 242.231 155.774C241.064 155.774 240.125 155.411 239.527 154.741C238.814 154.017 238.559 152.817 238.559 151.227V143.866H236.425V141.998H238.559V138.764L241.007 138.123Z" fill="#4A563E"/>
<path d="M91.2283 118.614C91.775 116.149 92.056 113.472 92.0498 110.709L100.048 110.511C99.9526 114.534 98.5799 118.267 96.3052 121.324C94.7992 120.231 93.0857 119.32 91.2283 118.614ZM68.9961 111.282C69.1301 114 69.5389 116.621 70.1943 119.027C68.4311 119.779 66.8026 120.717 65.3594 121.825L65.1841 121.959C62.8168 119.042 61.2955 115.431 60.9976 111.479L68.9961 111.282ZM70.0335 100.407C69.3085 103.189 68.9349 106.278 68.9479 109.483L60.9486 109.681C61.0367 105.214 62.6988 101.102 65.4252 97.8702C66.8034 98.8745 68.3553 99.725 70.0335 100.407ZM74.2483 91.907C73.3395 92.9052 72.5103 94.1473 71.7853 95.6165C71.3305 96.5375 70.9285 97.5268 70.5794 98.5693C69.189 97.9873 67.8997 97.283 66.7429 96.4595C68.8346 94.4278 71.3918 92.8535 74.2483 91.907ZM81.4092 109.174L81.2339 102.365C83.8776 102.3 86.4355 101.895 88.8158 101.186C89.5026 103.575 89.9283 106.211 90.0615 108.961L81.4092 109.174ZM81.6075 116.85L81.4559 110.973L90.1067 110.757C90.1098 113.289 89.8602 115.736 89.3778 117.992C86.9424 117.272 84.3117 116.878 81.6075 116.85ZM79.6192 111.018L79.7708 116.886C77.0497 117.021 74.4305 117.514 72.0157 118.332C71.4316 116.128 71.0641 113.728 70.9393 111.234L79.6192 111.018ZM79.3956 102.354L79.5732 109.219L70.891 109.434C70.8818 106.476 71.2164 103.63 71.8657 101.069C74.2192 101.818 76.7664 102.258 79.3956 102.354ZM79.1039 91.0198L79.3466 100.445C76.9134 100.347 74.5622 99.9365 72.3985 99.2413C72.727 98.2505 73.106 97.3138 73.5347 96.446C75.0514 93.3717 77.0023 91.4825 79.1039 91.0198ZM80.9399 90.9815C83.0515 91.3498 85.0857 93.1378 86.7517 96.1175C87.3083 97.1135 87.8014 98.2063 88.2271 99.374C86.0213 100.029 83.6448 100.401 81.1841 100.461L80.9399 90.9815ZM74.246 124.002C73.5968 122.84 73.034 121.55 72.5647 120.16C74.8149 119.388 77.2664 118.921 79.8197 118.788L80.0648 128.281C79.1942 128.229 78.3321 128.12 77.4846 127.959C76.3178 127.075 75.2191 125.743 74.246 124.002ZM67.4189 122.702C68.4479 122.001 69.5673 121.387 70.757 120.865C71.257 122.326 71.8534 123.685 72.541 124.915C72.9375 125.625 73.3571 126.277 73.7958 126.87C71.4323 125.916 69.2618 124.509 67.4189 122.702ZM87.4622 123.675C86.4654 125.695 85.2802 127.202 83.9878 128.131C83.3018 128.223 82.6059 128.284 81.903 128.305L81.6565 118.754C84.1922 118.787 86.6522 119.161 88.9192 119.841C88.5257 121.219 88.0387 122.506 87.4622 123.675ZM90.7544 120.475C92.3094 121.087 93.748 121.853 95.0228 122.761C92.8683 124.862 90.2989 126.409 87.4837 127.331C88.1076 126.511 88.6872 125.566 89.2124 124.503C89.8203 123.27 90.3356 121.918 90.7544 120.475ZM92.0047 108.91C91.8653 105.967 91.4029 103.135 90.6541 100.564C92.461 99.8765 94.14 99.0035 95.6437 97.955C98.122 100.925 99.713 104.638 100.004 108.712L92.0047 108.91ZM86.1813 91.73C86.225 91.7435 86.2686 91.7555 86.3115 91.7682C86.4577 91.8125 86.6032 91.859 86.7479 91.907L86.7494 91.9085C89.632 92.8633 92.2198 94.4623 94.3306 96.5322C93.0367 97.4113 91.602 98.1523 90.0615 98.7478C89.6006 97.4788 89.0631 96.29 88.456 95.2032C87.6567 93.773 86.7647 92.573 85.8062 91.6228C85.8261 91.6288 85.8452 91.6325 85.8651 91.6377C85.9708 91.667 86.0764 91.6992 86.1813 91.73ZM97.8318 122.523C100.649 118.78 102.112 114.252 101.99 109.528C101.868 104.819 100.185 100.386 97.1971 96.7933L97.2155 96.7775L96.5555 96.056C96.4828 95.9773 96.4108 95.8985 96.3373 95.8197C96.27 95.7485 96.2026 95.678 96.1345 95.6068C96.087 95.5565 96.0395 95.5085 95.9913 95.4605C95.9017 95.3682 95.8121 95.2782 95.7218 95.1898C95.6988 95.1673 95.6758 95.1455 95.6529 95.123C95.5488 95.021 95.4439 94.9212 95.3382 94.823L95.3015 94.787C95.1881 94.6835 95.0733 94.5792 94.9585 94.4757C94.9362 94.4562 94.9133 94.4352 94.8911 94.4165C94.7862 94.3243 94.6813 94.232 94.5749 94.142C94.5351 94.109 94.496 94.0768 94.457 94.0415C94.3659 93.9672 94.2747 93.8923 94.1829 93.8173C94.1186 93.7655 94.0535 93.7138 93.9884 93.662C93.9662 93.6448 93.944 93.6275 93.9218 93.6095C90.4367 90.872 86.2188 89.2858 81.7568 89.0367L81.7116 89.0323C81.6243 89.0285 81.5378 89.0247 81.4505 89.021C81.3349 89.015 81.2193 89.0112 81.1029 89.0098C81.0486 89.0075 80.9942 89.006 80.9399 89.006C80.8005 89.0015 80.6612 89 80.5218 89C80.4935 89 80.4652 89 80.4368 89C80.2791 89.0015 80.1206 89.0038 79.9622 89.0075H79.9553C79.7723 89.0112 79.5893 89.0195 79.4071 89.027C79.3412 89.0307 79.2754 89.0368 79.2095 89.0382C79.0947 89.0458 78.9791 89.0518 78.8643 89.0615C78.7793 89.0675 78.695 89.075 78.6101 89.0825C78.5144 89.09 78.4187 89.0975 78.323 89.1072C78.2341 89.1155 78.1461 89.1268 78.058 89.1365C77.9662 89.1455 77.8743 89.1552 77.7824 89.1673C77.6974 89.1785 77.6132 89.1898 77.5282 89.2017C77.4325 89.213 77.3361 89.2265 77.2404 89.24C77.1653 89.2513 77.0903 89.2648 77.0153 89.2767C76.9081 89.294 76.8009 89.3112 76.6945 89.3285C76.634 89.3398 76.5735 89.351 76.5123 89.363C76.389 89.384 76.2657 89.4073 76.1432 89.432C76.1011 89.4418 76.0598 89.4492 76.0177 89.459C75.873 89.4875 75.7283 89.5205 75.5843 89.5527C75.5652 89.5565 75.5468 89.5602 75.5284 89.5648C72.3695 90.2938 69.431 91.7128 66.9029 93.7422L66.8922 93.752C66.8034 93.8233 66.7161 93.896 66.6288 93.9672C66.5767 94.0115 66.5239 94.0535 66.4726 94.0978C66.432 94.13 66.393 94.1667 66.3524 94.2013C66.2567 94.2838 66.161 94.3647 66.0668 94.4488L66.0615 94.4548C65.6702 94.802 65.2897 95.165 64.923 95.5452L64.9176 95.549C64.8541 95.6165 64.7913 95.6832 64.7278 95.7508C64.6749 95.8063 64.6206 95.8618 64.5677 95.9195L64.5601 95.927L64.5455 95.9427L63.884 96.6568L63.9024 96.6725C60.6049 100.583 58.8753 105.472 59.007 110.593C59.1525 116.216 61.5244 121.446 65.6855 125.323C69.8475 129.199 75.301 131.255 81.0417 131.113C86.7823 130.972 92.1226 128.646 96.0793 124.569C96.5724 124.063 97.0364 123.535 97.4705 122.99L97.8724 122.556L97.8318 122.523Z" fill="#283618"/>
<path d="M248.359 68.0025C247.924 68.0025 247.487 67.8525 247.132 67.5495C246.362 66.8872 246.285 65.7352 246.962 64.9807C247.093 64.8345 250.201 61.4227 254.961 61.1715C258.12 61.0005 261.194 62.2387 264.082 64.8405C264.839 65.52 264.89 66.672 264.194 67.413C263.5 68.154 262.324 68.202 261.568 67.5225C259.441 65.6085 257.289 64.7002 255.16 64.8075C251.997 64.9747 249.778 67.3575 249.757 67.3822C249.388 67.791 248.875 68.0025 248.359 68.0025Z" fill="#283618"/>
<path d="M267.506 62.2155C267.061 62.2155 266.617 62.0603 266.262 61.7453C255.133 51.8978 245.407 61.2728 244.998 61.6763C244.275 62.3903 243.099 62.3963 242.369 61.6875C241.64 60.9795 241.634 59.8275 242.358 59.1128C242.483 58.9883 255.021 46.8923 268.753 59.0438C269.515 59.718 269.574 60.87 268.887 61.6148C268.52 62.0123 268.015 62.2155 267.506 62.2155Z" fill="#283618"/>
<path d="M259.47 72.6375C259.47 74.736 257.734 76.437 255.594 76.437C253.452 76.437 251.715 74.736 251.715 72.6375C251.715 70.539 253.452 68.838 255.594 68.838C257.734 68.838 259.47 70.539 259.47 72.6375Z" fill="#283618"/>
<path d="M114.877 255.784C114.877 255.784 111.827 254.218 109.52 260.293C107.213 266.365 107.114 275.836 107.958 279.066C107.958 279.066 101.236 286.224 106.752 290.924C106.752 290.924 114.357 298.831 114.863 300.864C115.057 300.388 118.3 294.599 123.576 294.288C128.851 293.977 141.823 280.501 134.884 278.389C134.884 278.389 135.406 280.573 133.038 280.043C130.671 279.514 132.144 271.461 132.113 268.614C132.082 265.765 130.331 258.741 125.279 255.751C120.227 252.762 114.418 252.958 114.877 255.784Z" fill="#131025"/>
<path d="M123.413 274.575C123.413 274.575 124.765 278.437 125.236 279.126C125.236 279.126 125.962 280.977 123.826 286.211C121.689 291.445 116.28 288.522 115.415 287.094C114.55 285.665 112.639 282.933 114.383 280.213C114.383 280.213 116.77 278.516 115.523 274.827C115.523 274.827 123.034 273.343 123.413 274.575Z" fill="#EAA87A"/>
<path d="M114.184 273.707C114.184 273.707 117.853 277.576 120.932 277.081C124.255 276.549 126.836 272.722 127.633 269.919C128.43 267.116 127.113 261.481 125.136 259.474C123.158 257.466 115.827 256.135 113.776 258.739C111.724 261.345 110.337 270.7 114.184 273.707Z" fill="#FCC596"/>
<path d="M107.817 325.838C107.817 325.838 99.0575 330.943 98.5752 333.514L108.23 330.171L107.817 325.838Z" fill="#175699"/>
<path d="M115.912 279.082C115.912 279.082 122.713 282.027 126.006 278.668C126.006 278.668 140.31 294.712 132.217 331.756C132.217 331.756 105.786 331.221 105.247 331.315C104.708 331.407 106.393 323.282 109.573 321.028C112.731 318.789 130.98 308.394 115.841 279.675C115.739 279.479 115.753 279.366 115.912 279.082Z" fill="white"/>
<path d="M115.71 278.999C115.71 278.999 113.075 279.264 109.813 280.426C107.309 281.987 104.166 284.761 105.148 288.474C106.722 294.43 109.251 308.297 106.672 313.979C104.678 318.377 102.259 321.545 98.6509 327.485H106.544C112.813 322.427 119.005 316.574 122.93 308.619C130.74 292.793 115.71 278.999 115.71 278.999Z" fill="#E52990"/>
<path d="M109.813 280.426C107.309 281.986 104.166 284.761 105.148 288.474C106.722 294.43 109.251 308.296 106.672 313.979C105.365 316.861 103.872 319.221 101.983 322.176C105.153 319.594 111.69 313.361 114.055 306.678C114.055 306.678 103.552 290.523 110.4 280.224C110.206 280.289 110.011 280.357 109.813 280.426Z" fill="#C01B7D"/>
<path d="M115.243 278.984L121.274 283.784L122.237 280.366L117.399 279.055L115.243 278.984Z" fill="#9BD4DF"/>
<path d="M126.007 278.668L122.467 280.23L125.812 283.931C125.812 283.931 127.436 280.143 126.007 278.668Z" fill="#9BD4DF"/>
<path d="M132.379 325.735C132.26 326.356 132.164 326.945 132.101 327.484H137.387C136.769 323.356 135.453 317.994 135.102 316.594C136.819 306.887 137.964 300.065 136.958 289.966C136.958 289.966 136.385 286.03 135.464 282.486C135.199 281.466 134.617 280.001 133.56 279.675C131.224 278.951 128.56 279.034 126.006 278.668C126.006 278.668 132.865 305.382 132.379 325.735Z" fill="#E52990"/>
<path d="M137.117 291.759C135.409 296.917 133.269 301.807 133.269 301.807C134.236 302.609 135.438 304.671 136.635 307.131C137.291 302.177 137.558 297.47 137.117 291.759Z" fill="#C01B7D"/>
<path d="M128.516 316.666C128.516 316.666 121.502 319.943 120.679 319.66C118.529 318.923 118.513 315.825 118.997 314.521C118.997 314.521 119.675 313.926 120.156 314.352C120.636 314.776 122.294 314.826 121.846 314.023C121.649 313.67 121.211 313.553 121.185 313.213C121.146 312.705 121.305 312.236 121.793 312.246C121.868 312.246 121.95 312.253 122.04 312.265C123.07 312.412 123.545 312.962 124.621 313.9C125.698 314.839 127.481 313.29 127.481 313.29L128.516 316.666Z" fill="#F9AE81"/>
<path d="M126.712 318.72C125.445 318.962 124.765 312.997 124.765 312.997C124.765 312.997 138.403 307.763 139.205 305.562C140.008 303.362 130.781 288.92 130.492 287.718C130.293 286.89 128.963 284.066 130.898 281.649C132.118 280.122 134.174 279.806 135.721 280.82C136.812 281.534 137.799 282.369 138.599 283.35C143.505 289.361 150.408 307.799 148.738 309.285C146.828 310.985 135.226 315.456 135.226 315.456C135.226 315.456 128.242 318.428 126.712 318.72Z" fill="#E52990"/>
<path d="M114.055 317.879C114.055 317.879 121.069 321.154 121.891 320.874C124.042 320.137 124.059 317.036 123.573 315.733C123.573 315.733 122.897 315.137 122.415 315.563C121.934 315.99 120.277 316.039 120.725 315.237C120.922 314.882 121.36 314.767 121.386 314.427C121.425 313.918 121.266 313.45 120.777 313.457C120.702 313.459 120.62 313.465 120.532 313.478C119.5 313.626 119.026 314.175 117.949 315.114C116.873 316.053 115.09 314.502 115.09 314.502L114.055 317.879Z" fill="#F9AE81"/>
<path d="M115.859 319.933C117.126 320.175 117.807 314.21 117.807 314.21C117.807 314.21 104.168 308.976 103.365 306.775C102.563 304.575 111.79 290.133 112.078 288.931C112.277 288.102 113.607 285.279 111.673 282.86C110.453 281.335 108.397 281.019 106.85 282.031C105.759 282.747 104.773 283.582 103.972 284.563C99.0656 290.575 92.1635 309.013 93.8333 310.498C95.742 312.196 107.344 316.669 107.344 316.669C107.344 316.669 114.329 319.642 115.859 319.933Z" fill="#E52990"/>
<path d="M103.236 334.806C103.236 334.806 102.754 337.879 106.514 338.86C110.276 339.844 112.957 340.497 113.619 338.507C114.282 336.518 114.873 335.359 113.619 335.071C112.365 334.78 103.236 334.806 103.236 334.806Z" fill="#222146"/>
<path d="M122.407 330.43C122.407 330.43 143.733 316.518 148.933 316.518C154.134 316.518 161.007 320.66 158.777 325.743C156.549 330.826 143.547 334.856 137.231 336.065C130.916 337.275 122.814 332.252 122.407 330.43Z" fill="#213267"/>
<path d="M149.948 316.568C152.497 318.261 154.086 320.804 152.843 323.637C150.614 328.721 137.612 332.751 131.296 333.961C129.79 334.249 128.182 334.18 126.6 333.888C129.593 335.465 133.693 336.743 137.232 336.065C143.547 334.856 156.549 330.826 158.778 325.743C160.865 320.984 154.975 317.051 149.948 316.568Z" fill="#14284E"/>
<path d="M124.23 331.632C124.23 331.632 101.755 316.719 96.7399 314.905C91.725 313.093 85.0388 316.518 85.7815 321.354C86.5241 326.191 92.0971 330.422 98.9694 333.446C105.842 336.469 122.001 337.073 122.001 337.073L124.23 331.632Z" fill="#213267"/>
<path d="M96.7399 314.905C91.725 313.093 85.0388 316.518 85.7815 321.354C85.7922 321.422 85.8067 321.489 85.819 321.554C88.0745 319.797 91.578 319.062 94.5111 320.123C99.526 321.938 122.001 336.851 122.001 336.851L121.911 337.07C121.969 337.071 122.001 337.073 122.001 337.073L124.23 331.632C124.23 331.632 101.755 316.719 96.7399 314.905Z" fill="#14284E"/>
<path d="M128.339 337.66C128.339 337.66 130.75 340.775 134.278 339.164C137.807 337.551 141.245 335.56 138.877 334.237C136.507 332.917 130.563 334.427 130.563 334.427C130.563 334.427 128.994 335.553 128.339 337.66Z" fill="#222146"/>
<path d="M122.001 337.073C122.001 337.073 127.266 338.225 129.286 338.559C129.286 338.559 132.221 335.107 130.789 334.339C129.592 333.696 124.23 331.632 124.23 331.632L122.001 337.073Z" fill="#E9C6CE"/>
<path d="M140.477 324.72H105.865L103.674 303.554C103.598 302.613 104.347 301.807 105.297 301.807H141.151C142.089 301.807 142.834 302.594 142.776 303.527L140.477 324.72Z" fill="#C7D3E2"/>
<path d="M137.575 312.399H134.813C134.634 312.399 134.488 312.255 134.488 312.081V306.994C134.488 306.82 134.634 306.678 134.813 306.678H137.575C137.753 306.678 137.899 306.82 137.899 306.994V312.081C137.899 312.255 137.753 312.399 137.575 312.399Z" fill="#D4DCE7"/>
<path d="M141.25 327.018H105.069C104.709 327.018 104.415 326.73 104.415 326.377V324.987C104.415 324.634 104.709 324.346 105.069 324.346H141.25C141.611 324.346 141.906 324.634 141.906 324.987V326.377C141.906 326.73 141.611 327.018 141.25 327.018Z" fill="#B3C1D2"/>
<path d="M104.415 325.192V326.173C104.415 326.638 104.803 327.018 105.278 327.018H119.678C119.842 326.855 119.944 326.63 119.944 326.385V324.981C119.944 324.733 119.842 324.511 119.678 324.346H105.278C104.803 324.346 104.415 324.726 104.415 325.192Z" fill="#95A9BB"/>
<path d="M128.716 302.623L105.772 302.375C104.881 302.375 104.521 302.716 104.592 303.579L106.646 323.952L108.582 323.917C108.547 317.929 110.932 306.052 128.716 302.623Z" fill="#A2B2CB"/>
<path d="M110.741 283.87C110.741 283.87 107.803 284.99 106.127 282.741C104.451 280.495 107.251 279.151 107.251 279.151C107.251 279.151 105.433 281.417 108.091 281.706C110.751 281.998 110.758 277.586 109.819 275.147C107.106 268.113 108.658 263.492 109.9 260.974C111.143 258.459 113.359 256.619 113.359 256.619L114.876 255.785L115.935 258.34C115.935 258.34 114.029 261.227 113.065 263.891C112.102 266.555 111.698 269.981 113.978 274.401C116.258 278.822 116.836 283.162 110.741 283.87Z" fill="#1C183C"/>
<path d="M115.935 258.34L114.877 255.784C114.877 255.784 111.827 254.218 109.52 260.293C108.727 262.378 108.317 264.883 108.153 267.402C109.203 271.183 112.165 275.545 113.781 279.249C115.821 283.926 109.609 282.664 109.609 282.664C109.609 282.664 111.685 286.13 114.79 283.471C118.205 280.545 115.21 275.701 113.899 273.164C112.588 270.628 112.796 265.83 114.042 263.103C115.288 260.379 115.935 258.34 115.935 258.34Z" fill="#232147"/>
<path d="M115.935 258.34C115.935 258.34 122.881 256.535 126.39 264.86C129.899 273.185 124.898 277.008 125.785 279.573C126.672 282.14 129.038 282.514 131.066 279.88C131.066 279.88 128.571 281.466 128.195 279.667C127.819 277.87 131.964 275.245 131.57 268.383C131.432 265.974 131.032 263.898 130.572 262.218C129.499 259.738 127.8 257.243 125.279 255.751C120.227 252.762 114.418 252.958 114.877 255.784L115.935 258.34Z" fill="#1C183C"/>
<path d="M72.8475 205.905L71.3416 207.38L60.4146 196.676L61.9205 195.201L72.8475 205.905Z" fill="#283618"/>
<path d="M60.4375 192.726L61.8554 194.283L73.3858 184.207L71.9678 182.65L60.4375 192.726Z" fill="#283618"/>
<path d="M64.9972 194.999C64.9972 197.551 62.8856 199.619 60.2809 199.619C57.6763 199.619 55.5654 197.551 55.5654 194.999C55.5654 192.447 57.6763 190.379 60.2809 190.379C62.8856 190.379 64.9972 192.447 64.9972 194.999Z" fill="#283618"/>
<path d="M77.5157 183.319C77.5157 185.871 75.4049 187.939 72.8002 187.939C70.1956 187.939 68.084 185.871 68.084 183.319C68.084 180.768 70.1956 178.7 72.8002 178.7C75.4049 178.7 77.5157 180.768 77.5157 183.319Z" fill="#283618"/>
<path d="M76.6591 205.91C76.6591 208.46 74.5475 210.53 71.9428 210.53C69.3382 210.53 67.2266 208.46 67.2266 205.91C67.2266 203.359 69.3382 201.289 71.9428 201.289C74.5475 201.289 76.6591 203.359 76.6591 205.91Z" fill="#283618"/>
<path d="M307.803 192.207C307.803 195.345 305.207 197.889 302.005 197.889C298.802 197.889 296.205 195.345 296.205 192.207C296.205 189.07 298.802 186.526 302.005 186.526C305.207 186.526 307.803 189.07 307.803 192.207Z" fill="#283618"/>
<path d="M310.54 200.755C310.254 200.755 309.966 200.657 309.733 200.455C309.231 200.018 309.186 199.265 309.633 198.774C315.869 191.902 309.936 185.941 309.682 185.691C309.208 185.224 309.208 184.471 309.682 184.007C310.156 183.542 310.925 183.542 311.399 184.007C311.478 184.084 319.19 191.825 311.448 200.356C311.209 200.62 310.876 200.755 310.54 200.755Z" fill="#283618"/>
<path d="M316.746 203.948C316.46 203.948 316.172 203.848 315.941 203.647C315.438 203.209 315.393 202.458 315.839 201.967C325.072 191.791 316.266 182.87 315.886 182.496C315.415 182.029 315.415 181.276 315.889 180.814C316.366 180.351 317.132 180.351 317.607 180.814C317.716 180.922 328.43 191.675 317.656 203.548C317.415 203.812 317.081 203.948 316.746 203.948Z" fill="#283618"/>
<path d="M294.452 200.755C294.741 200.755 295.029 200.657 295.26 200.455C295.762 200.018 295.807 199.265 295.36 198.774C289.124 191.902 295.056 185.941 295.313 185.691C295.788 185.224 295.788 184.471 295.313 184.007C294.837 183.542 294.069 183.542 293.594 184.007C293.516 184.084 285.803 191.825 293.545 200.356C293.784 200.62 294.118 200.755 294.452 200.755Z" fill="#283618"/>
<path d="M288.247 203.948C288.533 203.948 288.821 203.848 289.055 203.647C289.556 203.209 289.601 202.458 289.155 201.967C279.922 191.791 288.729 182.87 289.108 182.496C289.58 182.029 289.578 181.276 289.104 180.814C288.627 180.351 287.861 180.351 287.387 180.814C287.279 180.922 276.564 191.675 287.34 203.548C287.579 203.812 287.912 203.948 288.247 203.948Z" fill="#283618"/>
<path d="M149.585 56.3581H136.587C136.081 56.3581 135.671 55.9913 135.671 55.5383C135.671 55.0846 136.081 54.7163 136.587 54.7163H149.585C150.091 54.7163 150.501 55.0846 150.501 55.5383C150.501 55.9913 150.091 56.3581 149.585 56.3581Z" fill="#EAE8E8"/>
<path d="M143.534 60.4702H136.509C136.046 60.4702 135.671 60.102 135.671 59.649C135.671 59.1952 136.046 58.8285 136.509 58.8285H146.144L143.534 60.4702Z" fill="#EAE8E8"/>
<path d="M134.163 60.7178H132.293C132.127 60.7178 131.992 60.5858 131.992 60.4246V58.8751C131.992 58.7116 132.127 58.5811 132.293 58.5811H134.163C134.329 58.5811 134.464 58.7116 134.464 58.8751V60.4246C134.464 60.5858 134.329 60.7178 134.163 60.7178Z" fill="#EEEEEE"/>
<path d="M134.163 64.8308H132.293C132.127 64.8308 131.992 64.698 131.992 64.5353V62.9873C131.992 62.8245 132.126 62.6918 132.292 62.6918H134.163C134.329 62.6918 134.464 62.8245 134.464 62.9873V64.5353C134.464 64.698 134.329 64.8308 134.163 64.8308Z" fill="#EEEEEE"/>
<path d="M131.992 67.7302V67.0732C131.992 66.9232 132.115 66.8025 132.268 66.8025H133.464L131.992 67.7302Z" fill="#EEEEEE"/>
<path d="M134.188 68.9415H132.268C132.115 68.9415 131.992 68.8207 131.992 68.6707V67.7302L133.464 66.8025H134.188C134.34 66.8025 134.464 66.9232 134.464 67.0732V68.6707C134.464 68.8207 134.34 68.9415 134.188 68.9415Z" fill="#E2E2E5"/>
<path d="M134.163 56.607H132.293C132.127 56.607 131.992 56.475 131.992 56.3115V54.7643C131.992 54.6007 132.127 54.4688 132.293 54.4688H134.163C134.329 54.4688 134.464 54.6007 134.464 54.7643V56.3115C134.464 56.475 134.329 56.607 134.163 56.607Z" fill="#EEEEEE"/>
<path d="M136.997 64.581H136.587C136.081 64.581 135.671 64.2142 135.671 63.7612C135.671 63.3082 136.081 62.9392 136.587 62.9392H139.606L136.997 64.581Z" fill="#EAE8E8"/>
<path d="M163.443 47.637H163.241C163.318 47.3092 163.367 46.9733 163.367 46.6215C163.367 44.1105 161.289 42.075 158.725 42.075H157.551C156.837 38.6093 153.712 36 149.965 36C146.216 36 143.092 38.6093 142.377 42.075H136.562C133.998 42.075 131.92 44.1105 131.92 46.6215C131.92 46.9733 131.969 47.3092 132.045 47.637H129.764C126.028 47.637 123 50.604 123 54.2633C123 57.921 126.028 60.8873 129.764 60.8873H163.443C167.178 60.8873 170.206 57.921 170.206 54.2633C170.206 50.604 167.178 47.637 163.443 47.637Z" fill="#4A563E"/>
<defs>
<linearGradient id="paint0_linear_317_831" x1="197.344" y1="116.669" x2="195.978" y2="310.309" gradientUnits="userSpaceOnUse">
<stop stop-color="#FDFDFD"/>
<stop offset="0.0078125" stop-color="#FDFDFD"/>
<stop offset="0.0117187" stop-color="#FCFDFD"/>
<stop offset="0.015625" stop-color="#FBFDFD"/>
<stop offset="0.0195312" stop-color="#FAFCFD"/>
<stop offset="0.0234375" stop-color="#FAFCFD"/>
<stop offset="0.0273437" stop-color="#F9FCFD"/>
<stop offset="0.03125" stop-color="#F8FCFD"/>
<stop offset="0.0351562" stop-color="#F8FCFD"/>
<stop offset="0.0390625" stop-color="#F7FCFD"/>
<stop offset="0.0429687" stop-color="#F7FBFD"/>
<stop offset="0.046875" stop-color="#F6FBFD"/>
<stop offset="0.0507812" stop-color="#F5FBFD"/>
<stop offset="0.0546875" stop-color="#F5FBFD"/>
<stop offset="0.0585937" stop-color="#F4FBFD"/>
<stop offset="0.0625" stop-color="#F3FBFD"/>
<stop offset="0.0664062" stop-color="#F3FBFD"/>
<stop offset="0.0703125" stop-color="#F2FAFD"/>
<stop offset="0.0742187" stop-color="#F2FAFD"/>
<stop offset="0.078125" stop-color="#F1FAFD"/>
<stop offset="0.0820312" stop-color="#F0FAFD"/>
<stop offset="0.0859375" stop-color="#F0FAFD"/>
<stop offset="0.0898437" stop-color="#EFFAFD"/>
<stop offset="0.09375" stop-color="#EFFAFD"/>
<stop offset="0.0976562" stop-color="#EEFAFD"/>
<stop offset="0.101562" stop-color="#EDF9FD"/>
<stop offset="0.105469" stop-color="#EDF9FD"/>
<stop offset="0.109375" stop-color="#ECF9FD"/>
<stop offset="0.113281" stop-color="#ECF9FD"/>
<stop offset="0.117187" stop-color="#EBF9FD"/>
<stop offset="0.121094" stop-color="#EBF9FE"/>
<stop offset="0.125" stop-color="#EAF9FE"/>
<stop offset="0.128906" stop-color="#EAF8FE"/>
<stop offset="0.132812" stop-color="#E9F8FE"/>
<stop offset="0.136719" stop-color="#E8F8FE"/>
<stop offset="0.140625" stop-color="#E8F8FE"/>
<stop offset="0.144531" stop-color="#E7F8FE"/>
<stop offset="0.148437" stop-color="#E7F8FE"/>
<stop offset="0.152344" stop-color="#E6F8FE"/>
<stop offset="0.15625" stop-color="#E6F8FE"/>
<stop offset="0.160156" stop-color="#E5F7FE"/>
<stop offset="0.164062" stop-color="#E5F7FE"/>
<stop offset="0.167969" stop-color="#E4F7FE"/>
<stop offset="0.171875" stop-color="#E4F7FE"/>
<stop offset="0.175781" stop-color="#E3F7FE"/>
<stop offset="0.179687" stop-color="#E3F7FE"/>
<stop offset="0.183594" stop-color="#E2F7FE"/>
<stop offset="0.1875" stop-color="#E2F7FE"/>
<stop offset="0.191406" stop-color="#E1F6FE"/>
<stop offset="0.195312" stop-color="#E1F6FE"/>
<stop offset="0.203125" stop-color="#E0F6FE"/>
<stop offset="0.210937" stop-color="#DFF6FE"/>
<stop offset="0.21875" stop-color="#DEF6FE"/>
<stop offset="0.226562" stop-color="#DDF6FE"/>
<stop offset="0.234375" stop-color="#DCF5FE"/>
<stop offset="0.242187" stop-color="#DBF5FE"/>
<stop offset="0.25" stop-color="#DAF5FE"/>
<stop offset="0.257812" stop-color="#D9F5FE"/>
<stop offset="0.265625" stop-color="#D8F4FE"/>
<stop offset="0.273437" stop-color="#D8F4FE"/>
<stop offset="0.28125" stop-color="#D7F4FE"/>
<stop offset="0.289062" stop-color="#D6F4FE"/>
<stop offset="0.296875" stop-color="#D5F4FE"/>
<stop offset="0.304687" stop-color="#D4F3FE"/>
<stop offset="0.3125" stop-color="#D3F3FE"/>
<stop offset="0.320312" stop-color="#D3F3FE"/>
<stop offset="0.328125" stop-color="#D2F3FE"/>
<stop offset="0.335937" stop-color="#D1F3FE"/>
<stop offset="0.34375" stop-color="#D0F3FE"/>
<stop offset="0.351562" stop-color="#CFF2FE"/>
<stop offset="0.359375" stop-color="#CFF2FE"/>
<stop offset="0.367187" stop-color="#CEF2FE"/>
<stop offset="0.375" stop-color="#CDF2FE"/>
<stop offset="0.382812" stop-color="#CCF2FE"/>
<stop offset="0.390625" stop-color="#CCF2FE"/>
<stop offset="0.398437" stop-color="#CBF1FE"/>
<stop offset="0.40625" stop-color="#CAF1FE"/>
<stop offset="0.414062" stop-color="#CAF1FE"/>
<stop offset="0.421875" stop-color="#C9F1FE"/>
<stop offset="0.429687" stop-color="#C8F1FE"/>
<stop offset="0.4375" stop-color="#C8F1FE"/>
<stop offset="0.445312" stop-color="#C7F0FE"/>
<stop offset="0.453125" stop-color="#C6F0FE"/>
<stop offset="0.460937" stop-color="#C6F0FF"/>
<stop offset="0.46875" stop-color="#C5F0FF"/>
<stop offset="0.476562" stop-color="#C5F0FF"/>
<stop offset="0.484375" stop-color="#C4F0FF"/>
<stop offset="0.492187" stop-color="#C4F0FF"/>
<stop offset="0.5" stop-color="#C3F0FF"/>
<stop offset="0.507812" stop-color="#C3EFFF"/>
<stop offset="0.515625" stop-color="#C2EFFF"/>
<stop offset="0.523437" stop-color="#C1EFFF"/>
<stop offset="0.53125" stop-color="#C1EFFF"/>
<stop offset="0.546875" stop-color="#C0EFFF"/>
<stop offset="0.5625" stop-color="#BFEFFF"/>
<stop offset="0.578125" stop-color="#BEEEFF"/>
<stop offset="0.59375" stop-color="#BEEEFF"/>
<stop offset="0.609375" stop-color="#BDEEFF"/>
<stop offset="0.625" stop-color="#BCEEFF"/>
<stop offset="0.640625" stop-color="#BBEEFF"/>
<stop offset="0.65625" stop-color="#BBEEFF"/>
<stop offset="0.671875" stop-color="#BAEDFF"/>
<stop offset="0.6875" stop-color="#B9EDFF"/>
<stop offset="0.703125" stop-color="#B9EDFF"/>
<stop offset="0.71875" stop-color="#B8EDFF"/>
<stop offset="0.75" stop-color="#B7EDFF"/>
<stop offset="0.78125" stop-color="#B7EDFF"/>
<stop offset="0.8125" stop-color="#B6ECFF"/>
<stop offset="0.875" stop-color="#B5ECFF"/>
<stop offset="1" stop-color="#B4ECFF"/>
</linearGradient>
<linearGradient id="paint1_linear_317_831" x1="197.25" y1="129.401" x2="195.974" y2="310.301" gradientUnits="userSpaceOnUse">
<stop stop-color="#F7FCFE"/>
<stop offset="0.0078125" stop-color="#F7FCFE"/>
<stop offset="0.015625" stop-color="#F6FCFE"/>
<stop offset="0.0234375" stop-color="#F6FCFE"/>
<stop offset="0.03125" stop-color="#F5FCFE"/>
<stop offset="0.0390625" stop-color="#F4FCFE"/>
<stop offset="0.046875" stop-color="#F3FBFE"/>
<stop offset="0.0546875" stop-color="#F3FBFE"/>
<stop offset="0.0625" stop-color="#F2FBFE"/>
<stop offset="0.0703125" stop-color="#F1FBFE"/>
<stop offset="0.078125" stop-color="#F1FBFE"/>
<stop offset="0.0859375" stop-color="#F0FAFE"/>
<stop offset="0.09375" stop-color="#EFFAFE"/>
<stop offset="0.101563" stop-color="#EFFAFE"/>
<stop offset="0.109375" stop-color="#EEFAFE"/>
<stop offset="0.117188" stop-color="#EDFAFE"/>
<stop offset="0.125" stop-color="#EDFAFE"/>
<stop offset="0.132813" stop-color="#ECFAFE"/>
<stop offset="0.140625" stop-color="#EBF9FE"/>
<stop offset="0.148438" stop-color="#EBF9FE"/>
<stop offset="0.15625" stop-color="#EAF9FE"/>
<stop offset="0.164062" stop-color="#EAF9FE"/>
<stop offset="0.171875" stop-color="#E9F9FE"/>
<stop offset="0.179688" stop-color="#E8F9FE"/>
<stop offset="0.1875" stop-color="#E8F8FE"/>
<stop offset="0.195313" stop-color="#E7F8FE"/>
<stop offset="0.203125" stop-color="#E7F8FE"/>
<stop offset="0.210938" stop-color="#E6F8FE"/>
<stop offset="0.21875" stop-color="#E6F8FF"/>
<stop offset="0.226562" stop-color="#E5F8FF"/>
<stop offset="0.234375" stop-color="#E5F8FF"/>
<stop offset="0.242188" stop-color="#E4F8FF"/>
<stop offset="0.25" stop-color="#E4F7FF"/>
<stop offset="0.257812" stop-color="#E3F7FF"/>
<stop offset="0.265625" stop-color="#E2F7FF"/>
<stop offset="0.28125" stop-color="#E2F7FF"/>
<stop offset="0.296875" stop-color="#E1F7FF"/>
<stop offset="0.3125" stop-color="#E0F6FF"/>
<stop offset="0.328125" stop-color="#DFF6FF"/>
<stop offset="0.34375" stop-color="#DEF6FF"/>
<stop offset="0.359375" stop-color="#DDF6FF"/>
<stop offset="0.375" stop-color="#DCF6FF"/>
<stop offset="0.390625" stop-color="#DCF5FF"/>
<stop offset="0.40625" stop-color="#DBF5FF"/>
<stop offset="0.421875" stop-color="#DAF5FF"/>
<stop offset="0.4375" stop-color="#D9F5FF"/>
<stop offset="0.453125" stop-color="#D9F5FF"/>
<stop offset="0.46875" stop-color="#D8F4FF"/>
<stop offset="0.484375" stop-color="#D7F4FF"/>
<stop offset="0.5" stop-color="#D7F4FF"/>
<stop offset="0.515625" stop-color="#D6F4FF"/>
<stop offset="0.53125" stop-color="#D5F4FF"/>
<stop offset="0.546875" stop-color="#D5F4FF"/>
<stop offset="0.5625" stop-color="#D4F4FF"/>
<stop offset="0.59375" stop-color="#D4F3FF"/>
<stop offset="0.625" stop-color="#D3F3FF"/>
<stop offset="0.65625" stop-color="#D2F3FF"/>
<stop offset="0.6875" stop-color="#D1F3FF"/>
<stop offset="0.71875" stop-color="#D0F3FF"/>
<stop offset="0.75" stop-color="#D0F2FF"/>
<stop offset="0.8125" stop-color="#CFF2FF"/>
<stop offset="0.875" stop-color="#CFF2FF"/>
<stop offset="1" stop-color="#CEF2FF"/>
</linearGradient>
</defs>
</svg>
