<svg width="61" height="61" viewBox="0 0 61 61" fill="none" xmlns="http://www.w3.org/2000/svg">
<path d="M42.7388 47.775C42.1597 50.6278 39.6375 52.775 36.6138 52.775H14.1138C10.662 52.775 7.86378 49.9768 7.86378 46.525V29.025C7.86378 26.0013 10.011 23.4791 12.8638 22.9V20.275C12.8638 13.3714 18.4602 7.77498 25.3638 7.77498C32.2673 7.77498 37.8638 13.3714 37.8638 20.275V22.9C40.7166 23.4791 42.8638 26.0013 42.8638 29.025V32.775H46.6138C50.0656 32.775 52.8638 35.5732 52.8638 39.025V41.525C52.8638 44.9768 50.0656 47.775 46.6138 47.775H42.7388ZM40.1504 47.775H29.1138C25.662 47.775 22.8638 44.9768 22.8638 41.525V39.025C22.8638 35.5732 25.662 32.775 29.1138 32.775H40.3638V29.025C40.3638 27.0512 38.8389 25.4336 36.9029 25.286C36.8101 25.3079 36.7133 25.3196 36.6138 25.3196C36.4988 25.3196 36.3875 25.304 36.2817 25.275H14.1138C12.0427 25.275 10.3638 26.9539 10.3638 29.025V46.525C10.3638 48.596 12.0427 50.275 14.1138 50.275H36.6138C38.2466 50.275 39.6356 49.2315 40.1504 47.775ZM15.3638 22.775H35.3638V20.275C35.3638 14.7521 30.8866 10.275 25.3638 10.275C19.8409 10.275 15.3638 14.7521 15.3638 20.275V22.775ZM50.3638 41.525V39.025C50.3638 36.9539 48.6849 35.275 46.6138 35.275H29.1138C27.0427 35.275 25.3638 36.9539 25.3638 39.025V41.525C25.3638 43.596 27.0427 45.275 29.1138 45.275H46.6138C48.6849 45.275 50.3638 43.596 50.3638 41.525ZM29.1138 37.775H31.6138C32.3041 37.775 32.8638 38.3346 32.8638 39.025V41.525C32.8638 42.2153 32.3041 42.775 31.6138 42.775H29.1138C28.4234 42.775 27.8638 42.2153 27.8638 41.525V39.025C27.8638 38.3346 28.4234 37.775 29.1138 37.775ZM36.6138 37.775H39.1138C39.8041 37.775 40.3638 38.3346 40.3638 39.025V41.525C40.3638 42.2153 39.8041 42.775 39.1138 42.775H36.6138C35.9234 42.775 35.3638 42.2153 35.3638 41.525V39.025C35.3638 38.3346 35.9234 37.775 36.6138 37.775ZM44.1138 37.775H46.6138C47.3041 37.775 47.8638 38.3346 47.8638 39.025V41.525C47.8638 42.2153 47.3041 42.775 46.6138 42.775H44.1138C43.4234 42.775 42.8638 42.2153 42.8638 41.525V39.025C42.8638 38.3346 43.4234 37.775 44.1138 37.775Z" fill="black"/>
</svg>
